<svg data-v-423bf9ae="" xmlns="http://www.w3.org/2000/svg" viewBox="0 0 307 90" class="iconLeftSlogan"><!----><!----><!----><g data-v-423bf9ae="" id="ac566575-4b98-4625-abd4-e964e5548cbc" fill="#ffffff" transform="matrix(5.791505450303629,0,0,5.791505450303629,107.62547523734997,-15.40540475647797)"><path d="M0.71 10.23L0.71 10.23L0.81 6.30Q0.81 5.39 0.77 4.80L0.77 4.80Q0.70 3.75 0.53 3.49L0.53 3.49L0.48 3.40Q0.41 3.35 0.41 3.26L0.41 3.26Q0.41 3.00 1.11 2.83Q1.81 2.67 2.28 2.67Q2.76 2.67 2.76 2.94L2.76 2.94L2.74 3.09Q2.55 4.48 2.51 6.38Q2.46 8.27 2.46 8.86Q2.46 9.45 2.51 9.84Q2.55 10.23 2.56 10.30Q2.56 10.36 2.63 10.54Q2.69 10.71 2.79 10.85L2.79 10.85Q3.04 11.19 3.50 11.19Q3.96 11.19 4.28 10.98Q4.59 10.77 4.75 10.46L4.75 10.46Q5.07 9.80 5.14 9.32L5.14 9.32L5.17 9.11Q5.24 8.12 5.24 6.76Q5.24 5.40 5.22 4.98Q5.21 4.56 5.18 4.29Q5.15 4.02 5.13 3.81Q5.11 3.60 5.10 3.48Q5.08 3.36 5.08 3.35L5.08 3.35Q5.08 3.19 5.24 3.09L5.24 3.09Q5.47 2.91 5.97 2.79Q6.47 2.66 6.86 2.66Q7.25 2.66 7.25 2.84L7.25 2.84Q7.25 2.87 7.18 3.30L7.18 3.30Q6.87 5.21 6.87 8.60L6.87 8.60Q6.87 11.10 7.21 12.17L7.21 12.17Q7.27 12.33 7.27 12.40Q7.27 12.46 7.15 12.56L7.15 12.56Q6.73 12.88 6.04 12.88Q5.35 12.88 5.29 12.53L5.29 12.53Q5.22 12.35 5.21 11.80L5.21 11.80L5.19 11.63Q5.19 11.51 5.14 11.51L5.14 11.51L4.98 11.61Q4.72 12.05 4.37 12.36Q4.02 12.66 3.70 12.77L3.70 12.77Q3.23 12.94 2.79 12.94Q2.35 12.94 1.91 12.71Q1.47 12.47 1.25 12.17Q1.04 11.86 0.90 11.44L0.90 11.44Q0.71 10.84 0.71 10.23ZM8.06 12.77L8.06 12.77Q8.32 11.26 8.32 9.14Q8.32 7.03 8.19 6.40L8.19 6.40Q8.19 6.22 8.61 6.22L8.61 6.22Q9.25 6.22 9.46 6.71L9.46 6.71Q9.48 6.75 9.53 6.75Q9.59 6.75 9.62 6.72L9.62 6.72Q10.05 6.27 10.96 6.27Q11.87 6.27 12.40 6.73Q12.94 7.20 12.94 8.08L12.94 8.08Q12.94 8.61 12.85 9.59Q12.75 10.57 12.75 11.05L12.75 11.05Q12.75 12.18 13.13 12.68L13.13 12.68Q13.19 12.75 13.19 12.82L13.19 12.82Q13.19 13.01 12.80 13.01L12.80 13.01Q11.06 13.01 11.06 11.47L11.06 11.47Q11.06 10.88 11.33 9.83Q11.59 8.78 11.59 8.23L11.59 8.23Q11.59 7.11 10.67 7.11L10.67 7.11Q10.22 7.11 9.99 7.38Q9.76 7.64 9.73 7.99Q9.70 8.33 9.70 9.28L9.70 9.28Q9.70 10.74 9.80 11.82L9.80 11.82L9.83 12.12Q9.83 12.52 9.32 12.73Q8.81 12.95 8.44 12.95Q8.06 12.95 8.06 12.77ZM14.24 10.15L14.24 10.15L14.32 7.67L13.38 7.67Q13.27 7.67 13.27 7.59L13.27 7.59Q13.27 7.34 13.51 7.01Q13.75 6.68 14.03 6.68L14.03 6.68L14.32 6.68Q14.29 5.59 14.27 5.11L14.27 5.11Q14.21 4.26 13.99 3.79L13.99 3.79L13.92 3.65Q13.86 3.58 13.86 3.49Q13.86 3.39 14.01 3.32Q14.17 3.25 14.47 3.15Q14.77 3.05 15.75 2.89Q16.73 2.73 17.89 2.73Q19.04 2.73 19.14 2.90Q19.25 3.07 19.25 3.42Q19.25 3.78 19.15 3.78L19.15 3.78Q19.14 3.78 19.05 3.77L19.05 3.77Q18.83 3.71 18.37 3.71Q17.91 3.71 17.37 3.79Q16.84 3.88 16.56 3.96L16.56 3.96L16.30 4.06Q16.18 4.09 16.13 4.26L16.13 4.26Q16.02 5.08 16.02 6.68L16.02 6.68L18.28 6.68Q18.41 6.68 18.41 6.76L18.41 6.76Q18.41 7.01 18.19 7.35Q17.96 7.69 17.68 7.69L17.68 7.69L16.02 7.67L16.11 11.87Q16.11 12.18 16.02 12.32L16.02 12.32Q15.75 12.67 15.11 12.85Q14.48 13.02 14.06 13.02L14.06 13.02Q13.94 13.02 13.94 12.88L13.94 12.88Q13.94 12.81 13.96 12.77L13.96 12.77Q14.13 12.53 14.24 10.15ZM23.46 8.47L23.46 8.47L23.44 10.26Q23.44 12.12 23.84 12.50L23.84 12.50Q23.90 12.56 23.90 12.63L23.90 12.63Q23.90 12.84 23.00 12.84Q22.09 12.84 22.04 12.31L22.04 12.31Q22.02 12.18 22.02 11.79L22.02 11.79L22.08 9.55Q22.08 9.45 21.97 9.45L21.97 9.45Q21.29 9.45 20.71 9.83Q20.12 10.21 20.12 10.79L20.12 10.79Q20.12 11.10 20.29 11.31Q20.45 11.52 20.70 11.52Q20.94 11.52 21.11 11.42Q21.27 11.33 21.29 11.31L21.29 11.31Q21.53 11.34 21.53 11.81Q21.53 12.28 21.10 12.56Q20.66 12.85 20.19 12.85Q19.71 12.85 19.37 12.68Q19.03 12.52 18.87 12.31Q18.72 12.10 18.62 11.83L18.62 11.83Q18.52 11.51 18.52 11.27L18.52 11.27Q18.52 10.29 19.14 9.70Q19.75 9.11 20.72 8.86L20.72 8.86Q21.99 8.61 22.05 8.40L22.05 8.40Q22.09 8.25 22.09 7.88L22.09 7.88Q22.09 7.14 21.34 7.14L21.34 7.14Q21.01 7.14 20.76 7.34Q20.51 7.55 20.51 7.85L20.51 7.85L20.59 8.19Q20.57 8.43 20.09 8.47L20.09 8.47L19.94 8.48Q19.52 8.48 19.27 8.27Q19.03 8.06 19.03 7.71L19.03 7.71Q19.03 7.49 19.17 7.22Q19.32 6.94 19.54 6.78Q19.77 6.61 20.24 6.47Q20.71 6.34 21.14 6.34Q21.57 6.34 21.81 6.37Q22.05 6.40 22.46 6.50Q22.88 6.61 23.15 6.90Q23.42 7.20 23.44 7.52Q23.46 7.85 23.46 8.47ZM27.34 8.13L27.34 8.13Q27.29 8.19 27.29 8.25Q27.29 8.32 27.55 8.37Q27.80 8.43 28.11 8.68Q28.42 8.93 28.57 9.23L28.57 9.23Q28.87 9.80 28.90 10.23L28.90 10.23L28.91 10.42Q28.98 12.05 29.51 12.66L29.51 12.66Q29.58 12.75 29.58 12.80L29.58 12.80Q29.58 12.95 29.19 12.95L29.19 12.95Q28.01 12.95 27.69 12.46L27.69 12.46Q27.52 12.26 27.52 11.24L27.52 11.24L27.52 10.89Q27.52 9.59 27.20 9.09L27.20 9.09Q27.03 8.85 26.79 8.85Q26.54 8.85 26.28 9.28Q26.01 9.70 26.01 10.00L26.01 10.00Q26.01 11.17 26.07 11.63Q26.12 12.10 26.12 12.11L26.12 12.11Q26.12 12.52 25.57 12.74Q25.02 12.96 24.53 12.96L24.53 12.96Q24.35 12.96 24.35 12.74L24.35 12.74L24.35 12.68Q24.68 10.96 24.68 7.25L24.68 7.25Q24.68 6.03 24.63 5.19L24.63 5.19L24.60 4.91Q24.57 4.52 24.44 4.24Q24.30 3.96 24.18 3.88L24.18 3.88L24.07 3.81Q23.97 3.75 23.97 3.68L23.97 3.68Q23.97 3.46 24.64 3.18Q25.31 2.90 25.80 2.90L25.80 2.90Q26.03 2.91 26.04 3.07L26.04 3.07Q26.11 3.63 26.11 5.37Q26.11 7.11 26.03 8.15L26.03 8.15Q26.03 8.32 26.08 8.32Q26.14 8.32 26.26 8.16Q26.38 7.99 26.68 7.64Q26.98 7.29 27.49 6.83Q28.00 6.37 28.32 6.37Q28.63 6.37 28.94 6.52Q29.25 6.68 29.25 6.82L29.25 6.82L29.09 6.92Q28.29 7.21 27.34 8.13ZM31.18 9.11L31.18 9.11L31.19 9.46Q31.19 9.55 31.30 9.55L31.30 9.55Q31.75 9.51 32.09 9.32Q32.42 9.13 32.59 8.89L32.59 8.89Q32.93 8.37 32.96 7.99L32.96 7.99L32.97 7.83Q32.97 7.07 32.37 7.07L32.37 7.07Q31.92 7.07 31.64 7.46L31.64 7.46Q31.18 8.08 31.18 9.11ZM34.23 10.98L34.23 10.98Q34.23 11.51 34.01 11.91Q33.80 12.31 33.52 12.49Q33.25 12.68 32.89 12.80L32.89 12.80Q32.42 12.94 32.00 12.94L32.00 12.94Q30.83 12.94 30.27 12.05Q29.71 11.17 29.71 9.81Q29.71 8.44 30.40 7.38Q31.09 6.31 32.48 6.31L32.48 6.31Q33.74 6.31 34.19 7.20L34.19 7.20Q34.37 7.53 34.37 7.83Q34.37 8.13 34.34 8.31Q34.31 8.48 34.15 8.83Q33.98 9.18 33.70 9.46Q33.42 9.74 32.82 10.00Q32.21 10.25 31.40 10.33L31.40 10.33Q31.29 10.33 31.29 10.43L31.29 10.43Q31.29 10.56 31.38 10.80Q31.47 11.05 31.58 11.21L31.58 11.21Q31.89 11.61 32.49 11.61L32.49 11.61Q33.10 11.61 33.52 11.21L33.52 11.21Q33.74 11.00 33.88 10.70L33.88 10.70Q33.94 10.58 34.03 10.58Q34.12 10.58 34.17 10.74Q34.23 10.89 34.23 10.98Z"></path></g><!----><g data-v-423bf9ae="" id="f88d5b1f-0432-41a2-9ffc-5c79df61e840" transform="matrix(1.6071427476649456,0,0,1.6071427476649456,0.000003065381520173105,0)" stroke="none" fill="#DA4F39"><path d="M36.5 31.5v2h3.12a7.295 7.295 0 00.52-2H36.5zm-7.75-3.66a.496.496 0 00-.47-.34h-.56a.496.496 0 00-.47.34l-.75 2.23c.04.245.251.426.5.43h2a.514.514 0 00.5-.43l-.75-2.23zm0 0a.496.496 0 00-.47-.34h-.56a.496.496 0 00-.47.34l-.75 2.23c.04.245.251.426.5.43h2a.514.514 0 00.5-.43l-.75-2.23zm0 0a.496.496 0 00-.47-.34h-.56a.496.496 0 00-.47.34l-.75 2.23c.04.245.251.426.5.43h2a.514.514 0 00.5-.43l-.75-2.23zm0 0a.496.496 0 00-.47-.34h-.56a.496.496 0 00-.47.34l-.75 2.23c.04.245.251.426.5.43h2a.514.514 0 00.5-.43l-.75-2.23zm0 0a.496.496 0 00-.47-.34h-.56a.496.496 0 00-.47.34l-.75 2.23c.04.245.251.426.5.43h2a.514.514 0 00.5-.43l-.75-2.23zm11.42.66h-2.5a1.122 1.122 0 00-1.17 1.07v.93h3.71c.01-.64-.01-1.31-.04-2zm-11.89-1h-.56a.496.496 0 00-.47.34l-.75 2.23c.04.245.251.426.5.43h2a.514.514 0 00.5-.43l-.75-2.23a.496.496 0 00-.47-.34zm.47.34a.496.496 0 00-.47-.34h-.56a.496.496 0 00-.47.34l-.75 2.23c.04.245.251.426.5.43h2a.514.514 0 00.5-.43l-.75-2.23zm0 0a.496.496 0 00-.47-.34h-.56a.496.496 0 00-.47.34l-.75 2.23c.04.245.251.426.5.43h2a.514.514 0 00.5-.43l-.75-2.23zm0 0a.496.496 0 00-.47-.34h-.56a.496.496 0 00-.47.34l-.75 2.23c.04.245.251.426.5.43h2a.514.514 0 00.5-.43l-.75-2.23zm0 0a.496.496 0 00-.47-.34h-.56a.496.496 0 00-.47.34l-.75 2.23c.04.245.251.426.5.43h2a.514.514 0 00.5-.43l-.75-2.23zM23.5 35.5v1h9v-1h-9zm0 0v1h9v-1h-9zm0 0v1h9v-1h-9zm0 0v1h9v-1h-9zm0 0v1h9v-1h-9zm13-1v2.99c.28-.3.57-.61.89-.91a10.54 10.54 0 001.72-2.08H36.5zm-13 2h9v-1h-9v1zm0-1v1h9v-1h-9zm0 0v1h9v-1h-9zm0 0v1h9v-1h-9zm0 0v1h9v-1h-9zm-2-15.75a1.75 1.75 0 101.75 1.75 1.758 1.758 0 00-1.75-1.75zm0 0a1.75 1.75 0 101.75 1.75 1.758 1.758 0 00-1.75-1.75zm0 0a1.75 1.75 0 101.75 1.75 1.758 1.758 0 00-1.75-1.75zm0 0a1.75 1.75 0 101.75 1.75 1.758 1.758 0 00-1.75-1.75zm0 0a1.75 1.75 0 101.75 1.75 1.758 1.758 0 00-1.75-1.75zm0 0a1.75 1.75 0 101.75 1.75 1.758 1.758 0 00-1.75-1.75zm0 0a1.75 1.75 0 101.75 1.75 1.758 1.758 0 00-1.75-1.75zm0 0a1.75 1.75 0 101.75 1.75 1.758 1.758 0 00-1.75-1.75zm0 0a1.75 1.75 0 101.75 1.75 1.758 1.758 0 00-1.75-1.75zm0-2.25a4 4 0 100 8 4 4 0 000-8zm0 6.75a2.75 2.75 0 110-5.5 2.75 2.75 0 010 5.5zm0-4.5a1.75 1.75 0 101.75 1.75 1.758 1.758 0 00-1.75-1.75zm0 0a1.75 1.75 0 101.75 1.75 1.758 1.758 0 00-1.75-1.75zm0 0a1.75 1.75 0 101.75 1.75 1.758 1.758 0 00-1.75-1.75zm0 0a1.75 1.75 0 101.75 1.75 1.758 1.758 0 00-1.75-1.75zm0 0a1.75 1.75 0 101.75 1.75 1.758 1.758 0 00-1.75-1.75zm0 0a1.75 1.75 0 101.75 1.75 1.758 1.758 0 00-1.75-1.75zm0 0a1.75 1.75 0 101.75 1.75 1.758 1.758 0 00-1.75-1.75zm0 0a1.75 1.75 0 101.75 1.75 1.758 1.758 0 00-1.75-1.75zM36 12.5a.5.5 0 100 1 .5.5 0 000-1zm-4-3a.5.5 0 100 1 .5.5 0 000-1zM21.5 19.75a1.75 1.75 0 101.75 1.75 1.758 1.758 0 00-1.75-1.75zM20 9.5a.5.5 0 100 1 .5.5 0 000-1zm1.5 10.25a1.75 1.75 0 101.75 1.75 1.758 1.758 0 00-1.75-1.75zm0 0a1.75 1.75 0 101.75 1.75 1.758 1.758 0 00-1.75-1.75zm0 0a1.75 1.75 0 101.75 1.75 1.758 1.758 0 00-1.75-1.75zm0 0a1.75 1.75 0 101.75 1.75 1.758 1.758 0 00-1.75-1.75zm0 0a1.75 1.75 0 101.75 1.75 1.758 1.758 0 00-1.75-1.75zm0 0a1.75 1.75 0 101.75 1.75 1.758 1.758 0 00-1.75-1.75zm0 0a1.75 1.75 0 101.75 1.75 1.758 1.758 0 00-1.75-1.75zm0 0a1.75 1.75 0 101.75 1.75 1.758 1.758 0 00-1.75-1.75zm0-2.25a4 4 0 100 8 4 4 0 000-8zm0 6.75a2.75 2.75 0 110-5.5 2.75 2.75 0 010 5.5zm0-4.5a1.75 1.75 0 101.75 1.75 1.758 1.758 0 00-1.75-1.75zm0 0a1.75 1.75 0 101.75 1.75 1.758 1.758 0 00-1.75-1.75zm0 0a1.75 1.75 0 101.75 1.75 1.758 1.758 0 00-1.75-1.75zm0 0a1.75 1.75 0 101.75 1.75 1.758 1.758 0 00-1.75-1.75zm0 0a1.75 1.75 0 101.75 1.75 1.758 1.758 0 00-1.75-1.75zm0 0a1.75 1.75 0 101.75 1.75 1.758 1.758 0 00-1.75-1.75zm0 0a1.75 1.75 0 101.75 1.75 1.758 1.758 0 00-1.75-1.75zm0 0a1.75 1.75 0 101.75 1.75 1.758 1.758 0 00-1.75-1.75zm0 0a1.75 1.75 0 101.75 1.75 1.758 1.758 0 00-1.75-1.75zm0 0a1.75 1.75 0 101.75 1.75 1.758 1.758 0 00-1.75-1.75zm0 0a1.75 1.75 0 101.75 1.75 1.758 1.758 0 00-1.75-1.75zm0 0a1.75 1.75 0 101.75 1.75 1.758 1.758 0 00-1.75-1.75zm0 0a1.75 1.75 0 101.75 1.75 1.758 1.758 0 00-1.75-1.75zm0 0a1.75 1.75 0 101.75 1.75 1.758 1.758 0 00-1.75-1.75zm0 0a1.75 1.75 0 101.75 1.75 1.758 1.758 0 00-1.75-1.75zm0-2.25a4 4 0 100 8 4 4 0 000-8zm0 6.75a2.75 2.75 0 110-5.5 2.75 2.75 0 010 5.5zm0-4.5a1.75 1.75 0 101.75 1.75 1.758 1.758 0 00-1.75-1.75zm0 0a1.75 1.75 0 101.75 1.75 1.758 1.758 0 00-1.75-1.75zm0 0a1.75 1.75 0 101.75 1.75 1.758 1.758 0 00-1.75-1.75zm0 0a1.75 1.75 0 101.75 1.75 1.758 1.758 0 00-1.75-1.75zm0 0a1.75 1.75 0 101.75 1.75 1.758 1.758 0 00-1.75-1.75zm0 0a1.75 1.75 0 101.75 1.75 1.758 1.758 0 00-1.75-1.75zm7.25 8.09a.496.496 0 00-.47-.34h-.56a.496.496 0 00-.47.34l-.75 2.23c.04.245.251.426.5.43h2a.514.514 0 00.5-.43l-.75-2.23zM36 12.5a.5.5 0 100 1 .5.5 0 000-1zm-4-3a.5.5 0 100 1 .5.5 0 000-1zM21.5 19.75a1.75 1.75 0 101.75 1.75 1.758 1.758 0 00-1.75-1.75zm0 0a1.75 1.75 0 101.75 1.75 1.758 1.758 0 00-1.75-1.75zm0 0a1.75 1.75 0 101.75 1.75 1.758 1.758 0 00-1.75-1.75zm0 0a1.75 1.75 0 101.75 1.75 1.758 1.758 0 00-1.75-1.75zm0 0a1.75 1.75 0 101.75 1.75 1.758 1.758 0 00-1.75-1.75zm0 0a1.75 1.75 0 101.75 1.75 1.758 1.758 0 00-1.75-1.75zm0-2.25a4 4 0 100 8 4 4 0 000-8zm0 6.75a2.75 2.75 0 110-5.5 2.75 2.75 0 010 5.5zm0-4.5a1.75 1.75 0 101.75 1.75 1.758 1.758 0 00-1.75-1.75zm0 0a1.75 1.75 0 101.75 1.75 1.758 1.758 0 00-1.75-1.75zm0 0a1.75 1.75 0 101.75 1.75 1.758 1.758 0 00-1.75-1.75zm0 0a1.75 1.75 0 101.75 1.75 1.758 1.758 0 00-1.75-1.75zm13 0a1.75 1.75 0 101.75 1.75 1.758 1.758 0 00-1.75-1.75zm-13 0a1.75 1.75 0 101.75 1.75 1.758 1.758 0 00-1.75-1.75zm0 0a1.75 1.75 0 101.75 1.75 1.758 1.758 0 00-1.75-1.75zm0 0a1.75 1.75 0 101.75 1.75 1.758 1.758 0 00-1.75-1.75zm0 0a1.75 1.75 0 101.75 1.75 1.758 1.758 0 00-1.75-1.75zm0-2.25a4 4 0 100 8 4 4 0 000-8zm0 6.75a2.75 2.75 0 110-5.5 2.75 2.75 0 010 5.5zm0-4.5a1.75 1.75 0 101.75 1.75 1.758 1.758 0 00-1.75-1.75zm0 0a1.75 1.75 0 101.75 1.75 1.758 1.758 0 00-1.75-1.75zm0 0a1.75 1.75 0 101.75 1.75 1.758 1.758 0 00-1.75-1.75zm0 0a1.75 1.75 0 101.75 1.75 1.758 1.758 0 00-1.75-1.75zm13 0a1.75 1.75 0 101.75 1.75 1.758 1.758 0 00-1.75-1.75zm0 0a1.75 1.75 0 101.75 1.75 1.758 1.758 0 00-1.75-1.75zm0 0a1.75 1.75 0 101.75 1.75 1.758 1.758 0 00-1.75-1.75zm0 0a1.75 1.75 0 101.75 1.75 1.758 1.758 0 00-1.75-1.75zm0 0a1.75 1.75 0 101.75 1.75 1.758 1.758 0 00-1.75-1.75zm0-2.25a4 4 0 100 8 4 4 0 000-8zm0 6.75a2.75 2.75 0 110-5.5 2.75 2.75 0 010 5.5zm0-4.5a1.75 1.75 0 101.75 1.75 1.758 1.758 0 00-1.75-1.75zm0 0a1.75 1.75 0 101.75 1.75 1.758 1.758 0 00-1.75-1.75zm0 0a1.75 1.75 0 101.75 1.75 1.758 1.758 0 00-1.75-1.75zm0 0a1.75 1.75 0 101.75 1.75 1.758 1.758 0 00-1.75-1.75zm-13 0a1.75 1.75 0 101.75 1.75 1.758 1.758 0 00-1.75-1.75zm0 0a1.75 1.75 0 101.75 1.75 1.758 1.758 0 00-1.75-1.75zm0 0a1.75 1.75 0 101.75 1.75 1.758 1.758 0 00-1.75-1.75zm0 0a1.75 1.75 0 101.75 1.75 1.758 1.758 0 00-1.75-1.75zm0-2.25a4 4 0 100 8 4 4 0 000-8zm0 6.75a2.75 2.75 0 110-5.5 2.75 2.75 0 010 5.5zm0-4.5a1.75 1.75 0 101.75 1.75 1.758 1.758 0 00-1.75-1.75zm0 0a1.75 1.75 0 101.75 1.75 1.758 1.758 0 00-1.75-1.75zm0 0a1.75 1.75 0 101.75 1.75 1.758 1.758 0 00-1.75-1.75zm0 0a1.75 1.75 0 101.75 1.75 1.758 1.758 0 00-1.75-1.75zm13 0a1.75 1.75 0 101.75 1.75 1.758 1.758 0 00-1.75-1.75zm-13 0a1.75 1.75 0 101.75 1.75 1.758 1.758 0 00-1.75-1.75zm0 0a1.75 1.75 0 101.75 1.75 1.758 1.758 0 00-1.75-1.75zm0 0a1.75 1.75 0 101.75 1.75 1.758 1.758 0 00-1.75-1.75zm0 0a1.75 1.75 0 101.75 1.75 1.758 1.758 0 00-1.75-1.75zm0-2.25a4 4 0 100 8 4 4 0 000-8zm0 6.75a2.75 2.75 0 110-5.5 2.75 2.75 0 010 5.5zm0-4.5a1.75 1.75 0 101.75 1.75 1.758 1.758 0 00-1.75-1.75zm0 0a1.75 1.75 0 101.75 1.75 1.758 1.758 0 00-1.75-1.75zm0 0a1.75 1.75 0 101.75 1.75 1.758 1.758 0 00-1.75-1.75zm0 0a1.75 1.75 0 101.75 1.75 1.758 1.758 0 00-1.75-1.75zm7.25 8.09a.496.496 0 00-.47-.34h-.56a.496.496 0 00-.47.34l-.75 2.23c.04.245.251.426.5.43h2a.514.514 0 00.5-.43l-.75-2.23zm-7.25-8.09a1.75 1.75 0 101.75 1.75 1.758 1.758 0 00-1.75-1.75zM20 9.5a.5.5 0 100 1 .5.5 0 000-1zm1.5 10.25a1.75 1.75 0 101.75 1.75 1.758 1.758 0 00-1.75-1.75zm0 0a1.75 1.75 0 101.75 1.75 1.758 1.758 0 00-1.75-1.75zm0 0a1.75 1.75 0 101.75 1.75 1.758 1.758 0 00-1.75-1.75zm0 0a1.75 1.75 0 101.75 1.75 1.758 1.758 0 00-1.75-1.75zm0 0a1.75 1.75 0 101.75 1.75 1.758 1.758 0 00-1.75-1.75zm0 0a1.75 1.75 0 101.75 1.75 1.758 1.758 0 00-1.75-1.75zm0-2.25a4 4 0 100 8 4 4 0 000-8zm0 6.75a2.75 2.75 0 110-5.5 2.75 2.75 0 010 5.5zm0-4.5a1.75 1.75 0 101.75 1.75 1.758 1.758 0 00-1.75-1.75zm0 0a1.75 1.75 0 101.75 1.75 1.758 1.758 0 00-1.75-1.75zm0 0a1.75 1.75 0 101.75 1.75 1.758 1.758 0 00-1.75-1.75zm0 0a1.75 1.75 0 101.75 1.75 1.758 1.758 0 00-1.75-1.75zm0 0a1.75 1.75 0 101.75 1.75 1.758 1.758 0 00-1.75-1.75zm0 0a1.75 1.75 0 101.75 1.75 1.758 1.758 0 00-1.75-1.75zm13 0a1.75 1.75 0 101.75 1.75 1.758 1.758 0 00-1.75-1.75zm0 0a1.75 1.75 0 101.75 1.75 1.758 1.758 0 00-1.75-1.75zm0 0a1.75 1.75 0 101.75 1.75 1.758 1.758 0 00-1.75-1.75zm0 0a1.75 1.75 0 101.75 1.75 1.758 1.758 0 00-1.75-1.75zm0 0a1.75 1.75 0 101.75 1.75 1.758 1.758 0 00-1.75-1.75zm0-2.25a4 4 0 100 8 4 4 0 000-8zm0 6.75a2.75 2.75 0 110-5.5 2.75 2.75 0 010 5.5zm0-4.5a1.75 1.75 0 101.75 1.75 1.758 1.758 0 00-1.75-1.75zm0 0a1.75 1.75 0 101.75 1.75 1.758 1.758 0 00-1.75-1.75zm0 0a1.75 1.75 0 101.75 1.75 1.758 1.758 0 00-1.75-1.75zm0 0a1.75 1.75 0 101.75 1.75 1.758 1.758 0 00-1.75-1.75zm-13 0a1.75 1.75 0 101.75 1.75 1.758 1.758 0 00-1.75-1.75zm0 0a1.75 1.75 0 101.75 1.75 1.758 1.758 0 00-1.75-1.75zm0 0a1.75 1.75 0 101.75 1.75 1.758 1.758 0 00-1.75-1.75zm0 0a1.75 1.75 0 101.75 1.75 1.758 1.758 0 00-1.75-1.75zm0-2.25a4 4 0 100 8 4 4 0 000-8zm0 6.75a2.75 2.75 0 110-5.5 2.75 2.75 0 010 5.5zm0-4.5a1.75 1.75 0 101.75 1.75 1.758 1.758 0 00-1.75-1.75zm0 0a1.75 1.75 0 101.75 1.75 1.758 1.758 0 00-1.75-1.75zm0 0a1.75 1.75 0 101.75 1.75 1.758 1.758 0 00-1.75-1.75zm0 0a1.75 1.75 0 101.75 1.75 1.758 1.758 0 00-1.75-1.75zm0 0a1.75 1.75 0 101.75 1.75 1.758 1.758 0 00-1.75-1.75zm0 0a1.75 1.75 0 101.75 1.75 1.758 1.758 0 00-1.75-1.75zm0 0a1.75 1.75 0 101.75 1.75 1.758 1.758 0 00-1.75-1.75zm0 0a1.75 1.75 0 101.75 1.75 1.758 1.758 0 00-1.75-1.75zm0 0a1.75 1.75 0 101.75 1.75 1.758 1.758 0 00-1.75-1.75zm0-2.25a4 4 0 100 8 4 4 0 000-8zm0 6.75a2.75 2.75 0 110-5.5 2.75 2.75 0 010 5.5zm0-4.5a1.75 1.75 0 101.75 1.75 1.758 1.758 0 00-1.75-1.75zm0 0a1.75 1.75 0 101.75 1.75 1.758 1.758 0 00-1.75-1.75zm0 0a1.75 1.75 0 101.75 1.75 1.758 1.758 0 00-1.75-1.75zm0 0a1.75 1.75 0 101.75 1.75 1.758 1.758 0 00-1.75-1.75zm7.25 8.09a.496.496 0 00-.47-.34h-.56a.496.496 0 00-.47.34l-.75 2.23c.04.245.251.426.5.43h2a.514.514 0 00.5-.43l-.75-2.23zM36 12.5a.5.5 0 100 1 .5.5 0 000-1zm-1.5 7.25a1.75 1.75 0 101.75 1.75 1.758 1.758 0 00-1.75-1.75zm-11 15.75v1h9v-1h-9zm0 2v.5a.495.495 0 00.5.5h8a.495.495 0 00.5-.5v-.5h-9zm8.5-28a.5.5 0 100 1 .5.5 0 000-1zm2.5 10.25a1.75 1.75 0 101.75 1.75 1.758 1.758 0 00-1.75-1.75zm0 0a1.75 1.75 0 101.75 1.75 1.758 1.758 0 00-1.75-1.75zm0 0a1.75 1.75 0 101.75 1.75 1.758 1.758 0 00-1.75-1.75zm0 0a1.75 1.75 0 101.75 1.75 1.758 1.758 0 00-1.75-1.75zm0-2.25a4 4 0 100 8 4 4 0 000-8zm0 6.75a2.75 2.75 0 110-5.5 2.75 2.75 0 010 5.5zm0-4.5a1.75 1.75 0 101.75 1.75 1.758 1.758 0 00-1.75-1.75zm0 0a1.75 1.75 0 101.75 1.75 1.758 1.758 0 00-1.75-1.75zm0 0a1.75 1.75 0 101.75 1.75 1.758 1.758 0 00-1.75-1.75zm0 0a1.75 1.75 0 101.75 1.75 1.758 1.758 0 00-1.75-1.75zm-5.75 8.09a.496.496 0 00-.47-.34h-.56a.496.496 0 00-.47.34l-.75 2.23c.04.245.251.426.5.43h2a.514.514 0 00.5-.43l-.75-2.23zm-7.25-8.09a1.75 1.75 0 101.75 1.75 1.758 1.758 0 00-1.75-1.75zM20 9.5a.5.5 0 100 1 .5.5 0 000-1zm1.5 10.25a1.75 1.75 0 101.75 1.75 1.758 1.758 0 00-1.75-1.75zm0 0a1.75 1.75 0 101.75 1.75 1.758 1.758 0 00-1.75-1.75zm0 0a1.75 1.75 0 101.75 1.75 1.758 1.758 0 00-1.75-1.75zm0 0a1.75 1.75 0 101.75 1.75 1.758 1.758 0 00-1.75-1.75zm0-2.25a4 4 0 100 8 4 4 0 000-8zm0 6.75a2.75 2.75 0 110-5.5 2.75 2.75 0 010 5.5zm0-4.5a1.75 1.75 0 101.75 1.75 1.758 1.758 0 00-1.75-1.75zm0 0a1.75 1.75 0 101.75 1.75 1.758 1.758 0 00-1.75-1.75zm0 0a1.75 1.75 0 101.75 1.75 1.758 1.758 0 00-1.75-1.75zm0 0a1.75 1.75 0 101.75 1.75 1.758 1.758 0 00-1.75-1.75zm13 0a1.75 1.75 0 101.75 1.75 1.758 1.758 0 00-1.75-1.75zm0 0a1.75 1.75 0 101.75 1.75 1.758 1.758 0 00-1.75-1.75zm0 0a1.75 1.75 0 101.75 1.75 1.758 1.758 0 00-1.75-1.75zm0-2.25a4 4 0 100 8 4 4 0 000-8zm0 6.75a2.75 2.75 0 110-5.5 2.75 2.75 0 010 5.5zm0-4.5a1.75 1.75 0 101.75 1.75 1.758 1.758 0 00-1.75-1.75zm0 0a1.75 1.75 0 101.75 1.75 1.758 1.758 0 00-1.75-1.75zm-11 15.75v1h9v-1h-9zm0 2v.5a.495.495 0 00.5.5h8a.495.495 0 00.5-.5v-.5h-9zm-2-17.75a1.75 1.75 0 101.75 1.75 1.758 1.758 0 00-1.75-1.75zm0 0a1.75 1.75 0 101.75 1.75 1.758 1.758 0 00-1.75-1.75zm0 0a1.75 1.75 0 101.75 1.75 1.758 1.758 0 00-1.75-1.75zm0-2.25a4 4 0 100 8 4 4 0 000-8zm0 6.75a2.75 2.75 0 110-5.5 2.75 2.75 0 010 5.5zm0-4.5a1.75 1.75 0 101.75 1.75 1.758 1.758 0 00-1.75-1.75zm0 0a1.75 1.75 0 101.75 1.75 1.758 1.758 0 00-1.75-1.75zm7.25 8.09a.496.496 0 00-.47-.34h-.56a.496.496 0 00-.47.34l-.75 2.23c.04.245.251.426.5.43h2a.514.514 0 00.5-.43l-.75-2.23zM36 12.5a.5.5 0 100 1 .5.5 0 000-1zm-1.5 7.25a1.75 1.75 0 101.75 1.75 1.758 1.758 0 00-1.75-1.75zm-11 15.75v1h9v-1h-9zm8.5-26a.5.5 0 100 1 .5.5 0 000-1zm2.5 10.25a1.75 1.75 0 101.75 1.75 1.758 1.758 0 00-1.75-1.75zm0 0a1.75 1.75 0 101.75 1.75 1.758 1.758 0 00-1.75-1.75zm0-2.25a4 4 0 100 8 4 4 0 000-8zm0 6.75a2.75 2.75 0 110-5.5 2.75 2.75 0 010 5.5zm0-4.5a1.75 1.75 0 101.75 1.75 1.758 1.758 0 00-1.75-1.75zm0 0a1.75 1.75 0 101.75 1.75 1.758 1.758 0 00-1.75-1.75zm-5.75 8.09a.496.496 0 00-.47-.34h-.56a.496.496 0 00-.47.34l-.75 2.23c.04.245.251.426.5.43h2a.514.514 0 00.5-.43l-.75-2.23zM23.5 37.5v.5a.495.495 0 00.5.5h8a.495.495 0 00.5-.5v-.5h-9zm-2-17.75a1.75 1.75 0 101.75 1.75 1.758 1.758 0 00-1.75-1.75zM20 9.5a.5.5 0 100 1 .5.5 0 000-1zm1.5 10.25a1.75 1.75 0 101.75 1.75 1.758 1.758 0 00-1.75-1.75zm0 0a1.75 1.75 0 101.75 1.75 1.758 1.758 0 00-1.75-1.75zm0-2.25a4 4 0 100 8 4 4 0 000-8zm0 6.75a2.75 2.75 0 110-5.5 2.75 2.75 0 010 5.5zm0-4.5a1.75 1.75 0 101.75 1.75 1.758 1.758 0 00-1.75-1.75zm0 0a1.75 1.75 0 101.75 1.75 1.758 1.758 0 00-1.75-1.75zm13 0a1.75 1.75 0 101.75 1.75 1.758 1.758 0 00-1.75-1.75zm0-2.25a4 4 0 100 8 4 4 0 000-8zm0 6.75a2.75 2.75 0 110-5.5 2.75 2.75 0 010 5.5zm-11 11.25v1h9v-1h-9zm0 2.5a.495.495 0 00.5.5h8a.495.495 0 00.5-.5v-.5h-9v.5zm-2-18.25a1.75 1.75 0 101.75 1.75 1.758 1.758 0 00-1.75-1.75zm0-2.25a4 4 0 100 8 4 4 0 000-8zm0 6.75a2.75 2.75 0 110-5.5 2.75 2.75 0 010 5.5zm7.25 3.59a.496.496 0 00-.47-.34h-.56a.496.496 0 00-.47.34l-.75 2.23c.04.245.251.426.5.43h2a.514.514 0 00.5-.43l-.75-2.23zM36 13.5a.5.5 0 100-1 .5.5 0 000 1zm-1.5 6.25a1.75 1.75 0 101.75 1.75 1.758 1.758 0 00-1.75-1.75zm-11 16.75h9v-1h-9v1zm8.5-26a.5.5 0 100-1 .5.5 0 000 1zm2.5 7a4 4 0 100 8 4 4 0 000-8zm0 6.75a2.75 2.75 0 110-5.5 2.75 2.75 0 010 5.5zM27 30.5h2a.514.514 0 00.5-.43l-.75-2.23a.496.496 0 00-.47-.34h-.56a.496.496 0 00-.47.34l-.75 2.23c.04.245.251.426.5.43zM23.5 38a.495.495 0 00.5.5h8a.495.495 0 00.5-.5v-.5h-9v.5zm-2-18.25a1.75 1.75 0 101.75 1.75 1.758 1.758 0 00-1.75-1.75zm-2-9.75a.5.5 0 101 0 .5.5 0 00-1 0zm2 7.5a4 4 0 100 8 4 4 0 000-8zm0 6.75a2.75 2.75 0 110-5.5 2.75 2.75 0 010 5.5zm19.61-13.71a9.883 9.883 0 00-6.17-8.99c-.14-.07-.29-.14-.44-.2v3.44l1.85 1.86a.47.47 0 01.15.35v4.59a1.5 1.5 0 11-1 0V7.21l-1.85-1.86A.469.469 0 0133.5 5V.96a17.698 17.698 0 00-3-.77v3.6l1.85 1.86a.47.47 0 01.15.35v2.59a1.5 1.5 0 11-1 0V6.21l-1.85-1.86A.469.469 0 0129.5 4V.05a7.61 7.61 0 00-.54-.05h-1.97c-1.531.11-3.04.423-4.49.93V4a.469.469 0 01-.15.35L20.5 6.21v2.38a1.5 1.5 0 11-1 0V6a.47.47 0 01.15-.35l1.85-1.86V1.32a10.087 10.087 0 00-6.61 9.22c-.32 7.04.19 9.86.6 12.13.256 1.214.393 2.45.41 3.69 0 .39-.02.76-.03 1.14h2.46c1.17-.026 2.141.9 2.17 2.07v9.11c.62.81 1.13 1.57 1.57 2.25 1.36 2.1 2.05 3.03 3.91 3.03h4.04c1.86 0 2.55-.93 3.91-3.03.44-.68.95-1.44 1.57-2.25v-9.11c.029-1.17 1-2.096 2.17-2.07h2.46c-.01-.38-.03-.75-.03-1.14.017-1.24.154-2.476.41-3.69.41-2.27.92-5.09.6-12.13zM27.72 26.5h.56a1.483 1.483 0 011.42 1.03l.77 2.31c.02.051.03.105.03.16a1.498 1.498 0 01-1.5 1.5h-2a1.498 1.498 0 01-1.5-1.5c0-.055.01-.109.03-.16l.77-2.31a1.483 1.483 0 011.42-1.03zm-6.22 0a5 5 0 110-10 5 5 0 010 10zm12 11.5a1.498 1.498 0 01-1.5 1.5h-8a1.498 1.498 0 01-1.5-1.5v-3a.495.495 0 01.5-.5h10a.495.495 0 01.5.5v3zm1-11.5a5 5 0 110-10 5 5 0 010 10zm-13-6.75a1.75 1.75 0 101.75 1.75 1.758 1.758 0 00-1.75-1.75zm0 0a1.75 1.75 0 101.75 1.75 1.758 1.758 0 00-1.75-1.75zm0-2.25a4 4 0 100 8 4 4 0 000-8zm0 6.75a2.75 2.75 0 110-5.5 2.75 2.75 0 010 5.5zM20 9.5a.5.5 0 100 1 .5.5 0 000-1zm1.5 10.25a1.75 1.75 0 101.75 1.75 1.758 1.758 0 00-1.75-1.75zm2 17.75v.5a.495.495 0 00.5.5h8a.495.495 0 00.5-.5v-.5h-9zm5.25-9.66a.496.496 0 00-.47-.34h-.56a.496.496 0 00-.47.34l-.75 2.23c.04.245.251.426.5.43h2a.514.514 0 00.5-.43l-.75-2.23zm5.75-8.09a1.75 1.75 0 101.75 1.75 1.758 1.758 0 00-1.75-1.75zm0 0a1.75 1.75 0 101.75 1.75 1.758 1.758 0 00-1.75-1.75zm0-2.25a4 4 0 100 8 4 4 0 000-8zm0 6.75a2.75 2.75 0 110-5.5 2.75 2.75 0 010 5.5zM32 9.5a.5.5 0 100 1 .5.5 0 000-1zm-8.5 26v1h9v-1h-9zm11-15.75a1.75 1.75 0 101.75 1.75 1.758 1.758 0 00-1.75-1.75zM36 12.5a.5.5 0 100 1 .5.5 0 000-1zm-7.25 15.34a.496.496 0 00-.47-.34h-.56a.496.496 0 00-.47.34l-.75 2.23c.04.245.251.426.5.43h2a.514.514 0 00.5-.43l-.75-2.23zm-7.25-8.09a1.75 1.75 0 101.75 1.75 1.758 1.758 0 00-1.75-1.75zm0 0a1.75 1.75 0 101.75 1.75 1.758 1.758 0 00-1.75-1.75zm0-2.25a4 4 0 100 8 4 4 0 000-8zm0 6.75a2.75 2.75 0 110-5.5 2.75 2.75 0 010 5.5zm0-4.5a1.75 1.75 0 101.75 1.75 1.758 1.758 0 00-1.75-1.75zm2 17.75v.5a.495.495 0 00.5.5h8a.495.495 0 00.5-.5v-.5h-9zm0-2v1h9v-1h-9zm11-15.75a1.75 1.75 0 101.75 1.75 1.758 1.758 0 00-1.75-1.75zm0 0a1.75 1.75 0 101.75 1.75 1.758 1.758 0 00-1.75-1.75zm0-2.25a4 4 0 100 8 4 4 0 000-8zm0 6.75a2.75 2.75 0 110-5.5 2.75 2.75 0 010 5.5zm0-4.5a1.75 1.75 0 101.75 1.75 1.758 1.758 0 00-1.75-1.75zm-13 0a1.75 1.75 0 101.75 1.75 1.758 1.758 0 00-1.75-1.75zm0 0a1.75 1.75 0 101.75 1.75 1.758 1.758 0 00-1.75-1.75zm0 0a1.75 1.75 0 101.75 1.75 1.758 1.758 0 00-1.75-1.75zm0 0a1.75 1.75 0 101.75 1.75 1.758 1.758 0 00-1.75-1.75zm0-2.25a4 4 0 100 8 4 4 0 000-8zm0 6.75a2.75 2.75 0 110-5.5 2.75 2.75 0 010 5.5zm0-4.5a1.75 1.75 0 101.75 1.75 1.758 1.758 0 00-1.75-1.75zm0 0a1.75 1.75 0 101.75 1.75 1.758 1.758 0 00-1.75-1.75zM20 9.5a.5.5 0 100 1 .5.5 0 000-1zm1.5 10.25a1.75 1.75 0 101.75 1.75 1.758 1.758 0 00-1.75-1.75zm7.25 8.09a.496.496 0 00-.47-.34h-.56a.496.496 0 00-.47.34l-.75 2.23c.04.245.251.426.5.43h2a.514.514 0 00.5-.43l-.75-2.23zm5.75-8.09a1.75 1.75 0 101.75 1.75 1.758 1.758 0 00-1.75-1.75zm0 0a1.75 1.75 0 101.75 1.75 1.758 1.758 0 00-1.75-1.75zm0 0a1.75 1.75 0 101.75 1.75 1.758 1.758 0 00-1.75-1.75zm0 0a1.75 1.75 0 101.75 1.75 1.758 1.758 0 00-1.75-1.75zm0-2.25a4 4 0 100 8 4 4 0 000-8zm0 6.75a2.75 2.75 0 110-5.5 2.75 2.75 0 010 5.5zm0-4.5a1.75 1.75 0 101.75 1.75 1.758 1.758 0 00-1.75-1.75zm0 0a1.75 1.75 0 101.75 1.75 1.758 1.758 0 00-1.75-1.75zM32 9.5a.5.5 0 100 1 .5.5 0 000-1zm-8.5 28v.5a.495.495 0 00.5.5h8a.495.495 0 00.5-.5v-.5h-9zm0-2v1h9v-1h-9zm11-15.75a1.75 1.75 0 101.75 1.75 1.758 1.758 0 00-1.75-1.75zM36 12.5a.5.5 0 100 1 .5.5 0 000-1zm-7.25 15.34a.496.496 0 00-.47-.34h-.56a.496.496 0 00-.47.34l-.75 2.23c.04.245.251.426.5.43h2a.514.514 0 00.5-.43l-.75-2.23zm-7.25-8.09a1.75 1.75 0 101.75 1.75 1.758 1.758 0 00-1.75-1.75zm0 0a1.75 1.75 0 101.75 1.75 1.758 1.758 0 00-1.75-1.75zm0 0a1.75 1.75 0 101.75 1.75 1.758 1.758 0 00-1.75-1.75zm0 0a1.75 1.75 0 101.75 1.75 1.758 1.758 0 00-1.75-1.75zm0-2.25a4 4 0 100 8 4 4 0 000-8zm0 6.75a2.75 2.75 0 110-5.5 2.75 2.75 0 010 5.5zm0-4.5a1.75 1.75 0 101.75 1.75 1.758 1.758 0 00-1.75-1.75zm0 0a1.75 1.75 0 101.75 1.75 1.758 1.758 0 00-1.75-1.75zm0 0a1.75 1.75 0 101.75 1.75 1.758 1.758 0 00-1.75-1.75zm2 17.75v.5a.495.495 0 00.5.5h8a.495.495 0 00.5-.5v-.5h-9zm0-2v1h9v-1h-9zm11-15.75a1.75 1.75 0 101.75 1.75 1.758 1.758 0 00-1.75-1.75zm0 0a1.75 1.75 0 101.75 1.75 1.758 1.758 0 00-1.75-1.75zm0 0a1.75 1.75 0 101.75 1.75 1.758 1.758 0 00-1.75-1.75zm0 0a1.75 1.75 0 101.75 1.75 1.758 1.758 0 00-1.75-1.75zm0-2.25a4 4 0 100 8 4 4 0 000-8zm0 6.75a2.75 2.75 0 110-5.5 2.75 2.75 0 010 5.5zm0-4.5a1.75 1.75 0 101.75 1.75 1.758 1.758 0 00-1.75-1.75zm0 0a1.75 1.75 0 101.75 1.75 1.758 1.758 0 00-1.75-1.75zm0 0a1.75 1.75 0 101.75 1.75 1.758 1.758 0 00-1.75-1.75zm-13 0a1.75 1.75 0 101.75 1.75 1.758 1.758 0 00-1.75-1.75zm0 0a1.75 1.75 0 101.75 1.75 1.758 1.758 0 00-1.75-1.75zm0 0a1.75 1.75 0 101.75 1.75 1.758 1.758 0 00-1.75-1.75zm0 0a1.75 1.75 0 101.75 1.75 1.758 1.758 0 00-1.75-1.75zm0 0a1.75 1.75 0 101.75 1.75 1.758 1.758 0 00-1.75-1.75zm0 0a1.75 1.75 0 101.75 1.75 1.758 1.758 0 00-1.75-1.75zm0-2.25a4 4 0 100 8 4 4 0 000-8zm0 6.75a2.75 2.75 0 110-5.5 2.75 2.75 0 010 5.5zm0-4.5a1.75 1.75 0 101.75 1.75 1.758 1.758 0 00-1.75-1.75zm0 0a1.75 1.75 0 101.75 1.75 1.758 1.758 0 00-1.75-1.75zm0 0a1.75 1.75 0 101.75 1.75 1.758 1.758 0 00-1.75-1.75zm0 0a1.75 1.75 0 101.75 1.75 1.758 1.758 0 00-1.75-1.75zM20 9.5a.5.5 0 100 1 .5.5 0 000-1zm1.5 10.25a1.75 1.75 0 101.75 1.75 1.758 1.758 0 00-1.75-1.75zm7.25 8.09a.496.496 0 00-.47-.34h-.56a.496.496 0 00-.47.34l-.75 2.23c.04.245.251.426.5.43h2a.514.514 0 00.5-.43l-.75-2.23zm5.75-8.09a1.75 1.75 0 101.75 1.75 1.758 1.758 0 00-1.75-1.75zm-13 0a1.75 1.75 0 101.75 1.75 1.758 1.758 0 00-1.75-1.75zm0 0a1.75 1.75 0 101.75 1.75 1.758 1.758 0 00-1.75-1.75zm0 0a1.75 1.75 0 101.75 1.75 1.758 1.758 0 00-1.75-1.75zm0 0a1.75 1.75 0 101.75 1.75 1.758 1.758 0 00-1.75-1.75zm0-2.25a4 4 0 100 8 4 4 0 000-8zm0 6.75a2.75 2.75 0 110-5.5 2.75 2.75 0 010 5.5zm0-4.5a1.75 1.75 0 101.75 1.75 1.758 1.758 0 00-1.75-1.75zm0 0a1.75 1.75 0 101.75 1.75 1.758 1.758 0 00-1.75-1.75zm0 0a1.75 1.75 0 101.75 1.75 1.758 1.758 0 00-1.75-1.75zm0 0a1.75 1.75 0 101.75 1.75 1.758 1.758 0 00-1.75-1.75zm13 0a1.75 1.75 0 101.75 1.75 1.758 1.758 0 00-1.75-1.75zm0 0a1.75 1.75 0 101.75 1.75 1.758 1.758 0 00-1.75-1.75zm0 0a1.75 1.75 0 101.75 1.75 1.758 1.758 0 00-1.75-1.75zm0 0a1.75 1.75 0 101.75 1.75 1.758 1.758 0 00-1.75-1.75zm0 0a1.75 1.75 0 101.75 1.75 1.758 1.758 0 00-1.75-1.75zm0-2.25a4 4 0 100 8 4 4 0 000-8zm0 6.75a2.75 2.75 0 110-5.5 2.75 2.75 0 010 5.5zm0-4.5a1.75 1.75 0 101.75 1.75 1.758 1.758 0 00-1.75-1.75zm0 0a1.75 1.75 0 101.75 1.75 1.758 1.758 0 00-1.75-1.75zm0 0a1.75 1.75 0 101.75 1.75 1.758 1.758 0 00-1.75-1.75zm0 0a1.75 1.75 0 101.75 1.75 1.758 1.758 0 00-1.75-1.75zm-13 0a1.75 1.75 0 101.75 1.75 1.758 1.758 0 00-1.75-1.75zm0 0a1.75 1.75 0 101.75 1.75 1.758 1.758 0 00-1.75-1.75zm0 0a1.75 1.75 0 101.75 1.75 1.758 1.758 0 00-1.75-1.75zm0 0a1.75 1.75 0 101.75 1.75 1.758 1.758 0 00-1.75-1.75zm0-2.25a4 4 0 100 8 4 4 0 000-8zm0 6.75a2.75 2.75 0 110-5.5 2.75 2.75 0 010 5.5zm0-4.5a1.75 1.75 0 101.75 1.75 1.758 1.758 0 00-1.75-1.75zm0 0a1.75 1.75 0 101.75 1.75 1.758 1.758 0 00-1.75-1.75zm0 0a1.75 1.75 0 101.75 1.75 1.758 1.758 0 00-1.75-1.75zm0 0a1.75 1.75 0 101.75 1.75 1.758 1.758 0 00-1.75-1.75zM32 9.5a.5.5 0 100 1 .5.5 0 000-1zm2.5 10.25a1.75 1.75 0 101.75 1.75 1.758 1.758 0 00-1.75-1.75zm-13 0a1.75 1.75 0 101.75 1.75 1.758 1.758 0 00-1.75-1.75zm0 0a1.75 1.75 0 101.75 1.75 1.758 1.758 0 00-1.75-1.75zm0 0a1.75 1.75 0 101.75 1.75 1.758 1.758 0 00-1.75-1.75zm0 0a1.75 1.75 0 101.75 1.75 1.758 1.758 0 00-1.75-1.75zm0-2.25a4 4 0 100 8 4 4 0 000-8zm0 6.75a2.75 2.75 0 110-5.5 2.75 2.75 0 010 5.5zm0-4.5a1.75 1.75 0 101.75 1.75 1.758 1.758 0 00-1.75-1.75zm0 0a1.75 1.75 0 101.75 1.75 1.758 1.758 0 00-1.75-1.75zm0 0a1.75 1.75 0 101.75 1.75 1.758 1.758 0 00-1.75-1.75zm0 0a1.75 1.75 0 101.75 1.75 1.758 1.758 0 00-1.75-1.75zM36 12.5a.5.5 0 100 1 .5.5 0 000-1zm-7.25 15.34a.496.496 0 00-.47-.34h-.56a.496.496 0 00-.47.34l-.75 2.23c.04.245.251.426.5.43h2a.514.514 0 00.5-.43l-.75-2.23zm-7.25-8.09a1.75 1.75 0 101.75 1.75 1.758 1.758 0 00-1.75-1.75zm0 0a1.75 1.75 0 101.75 1.75 1.758 1.758 0 00-1.75-1.75zm0 0a1.75 1.75 0 101.75 1.75 1.758 1.758 0 00-1.75-1.75zm0 0a1.75 1.75 0 101.75 1.75 1.758 1.758 0 00-1.75-1.75zm0 0a1.75 1.75 0 101.75 1.75 1.758 1.758 0 00-1.75-1.75zm0 0a1.75 1.75 0 101.75 1.75 1.758 1.758 0 00-1.75-1.75zm0-2.25a4 4 0 100 8 4 4 0 000-8zm0 6.75a2.75 2.75 0 110-5.5 2.75 2.75 0 010 5.5zm0-4.5a1.75 1.75 0 101.75 1.75 1.758 1.758 0 00-1.75-1.75zm0 0a1.75 1.75 0 101.75 1.75 1.758 1.758 0 00-1.75-1.75zm0 0a1.75 1.75 0 101.75 1.75 1.758 1.758 0 00-1.75-1.75zm0 0a1.75 1.75 0 101.75 1.75 1.758 1.758 0 00-1.75-1.75zm0 0a1.75 1.75 0 101.75 1.75 1.758 1.758 0 00-1.75-1.75zm0 0a1.75 1.75 0 101.75 1.75 1.758 1.758 0 00-1.75-1.75zm0 0a1.75 1.75 0 101.75 1.75 1.758 1.758 0 00-1.75-1.75zm0 0a1.75 1.75 0 101.75 1.75 1.758 1.758 0 00-1.75-1.75zm0 0a1.75 1.75 0 101.75 1.75 1.758 1.758 0 00-1.75-1.75zm0 0a1.75 1.75 0 101.75 1.75 1.758 1.758 0 00-1.75-1.75zm0 0a1.75 1.75 0 101.75 1.75 1.758 1.758 0 00-1.75-1.75zm0-2.25a4 4 0 100 8 4 4 0 000-8zm0 6.75a2.75 2.75 0 110-5.5 2.75 2.75 0 010 5.5zm0-4.5a1.75 1.75 0 101.75 1.75 1.758 1.758 0 00-1.75-1.75zm0 0a1.75 1.75 0 101.75 1.75 1.758 1.758 0 00-1.75-1.75zm0 0a1.75 1.75 0 101.75 1.75 1.758 1.758 0 00-1.75-1.75zm0 0a1.75 1.75 0 101.75 1.75 1.758 1.758 0 00-1.75-1.75zm13 0a1.75 1.75 0 101.75 1.75 1.758 1.758 0 00-1.75-1.75zm-13 0a1.75 1.75 0 101.75 1.75 1.758 1.758 0 00-1.75-1.75zm0 0a1.75 1.75 0 101.75 1.75 1.758 1.758 0 00-1.75-1.75zm0 0a1.75 1.75 0 101.75 1.75 1.758 1.758 0 00-1.75-1.75zm0 0a1.75 1.75 0 101.75 1.75 1.758 1.758 0 00-1.75-1.75zm0-2.25a4 4 0 100 8 4 4 0 000-8zm0 6.75a2.75 2.75 0 110-5.5 2.75 2.75 0 010 5.5zm0-4.5a1.75 1.75 0 101.75 1.75 1.758 1.758 0 00-1.75-1.75zm0 0a1.75 1.75 0 101.75 1.75 1.758 1.758 0 00-1.75-1.75zm0 0a1.75 1.75 0 101.75 1.75 1.758 1.758 0 00-1.75-1.75zm0 0a1.75 1.75 0 101.75 1.75 1.758 1.758 0 00-1.75-1.75zm13 0a1.75 1.75 0 101.75 1.75 1.758 1.758 0 00-1.75-1.75zm0 0a1.75 1.75 0 101.75 1.75 1.758 1.758 0 00-1.75-1.75zm0 0a1.75 1.75 0 101.75 1.75 1.758 1.758 0 00-1.75-1.75zm0 0a1.75 1.75 0 101.75 1.75 1.758 1.758 0 00-1.75-1.75zm0 0a1.75 1.75 0 101.75 1.75 1.758 1.758 0 00-1.75-1.75zm0-2.25a4 4 0 100 8 4 4 0 000-8zm0 6.75a2.75 2.75 0 110-5.5 2.75 2.75 0 010 5.5zm0-4.5a1.75 1.75 0 101.75 1.75 1.758 1.758 0 00-1.75-1.75zm0 0a1.75 1.75 0 101.75 1.75 1.758 1.758 0 00-1.75-1.75zm0 0a1.75 1.75 0 101.75 1.75 1.758 1.758 0 00-1.75-1.75zm0 0a1.75 1.75 0 101.75 1.75 1.758 1.758 0 00-1.75-1.75zm-13 0a1.75 1.75 0 101.75 1.75 1.758 1.758 0 00-1.75-1.75zm0 0a1.75 1.75 0 101.75 1.75 1.758 1.758 0 00-1.75-1.75zm0 0a1.75 1.75 0 101.75 1.75 1.758 1.758 0 00-1.75-1.75zm0 0a1.75 1.75 0 101.75 1.75 1.758 1.758 0 00-1.75-1.75zm0-2.25a4 4 0 100 8 4 4 0 000-8zm0 6.75a2.75 2.75 0 110-5.5 2.75 2.75 0 010 5.5zm0-4.5a1.75 1.75 0 101.75 1.75 1.758 1.758 0 00-1.75-1.75zm0 0a1.75 1.75 0 101.75 1.75 1.758 1.758 0 00-1.75-1.75zm0 0a1.75 1.75 0 101.75 1.75 1.758 1.758 0 00-1.75-1.75zm0 0a1.75 1.75 0 101.75 1.75 1.758 1.758 0 00-1.75-1.75zm13 0a1.75 1.75 0 101.75 1.75 1.758 1.758 0 00-1.75-1.75zm-13 0a1.75 1.75 0 101.75 1.75 1.758 1.758 0 00-1.75-1.75zm0 0a1.75 1.75 0 101.75 1.75 1.758 1.758 0 00-1.75-1.75zm0 0a1.75 1.75 0 101.75 1.75 1.758 1.758 0 00-1.75-1.75zm0 0a1.75 1.75 0 101.75 1.75 1.758 1.758 0 00-1.75-1.75zm0-2.25a4 4 0 100 8 4 4 0 000-8zm0 6.75a2.75 2.75 0 110-5.5 2.75 2.75 0 010 5.5zm0-4.5a1.75 1.75 0 101.75 1.75 1.758 1.758 0 00-1.75-1.75zm0 0a1.75 1.75 0 101.75 1.75 1.758 1.758 0 00-1.75-1.75zm0 0a1.75 1.75 0 101.75 1.75 1.758 1.758 0 00-1.75-1.75zm0 0a1.75 1.75 0 101.75 1.75 1.758 1.758 0 00-1.75-1.75zm0 0a1.75 1.75 0 101.75 1.75 1.758 1.758 0 00-1.75-1.75zm0 0a1.75 1.75 0 101.75 1.75 1.758 1.758 0 00-1.75-1.75zm0 0a1.75 1.75 0 101.75 1.75 1.758 1.758 0 00-1.75-1.75zm0 0a1.75 1.75 0 101.75 1.75 1.758 1.758 0 00-1.75-1.75zm0 0a1.75 1.75 0 101.75 1.75 1.758 1.758 0 00-1.75-1.75zm0 0a1.75 1.75 0 101.75 1.75 1.758 1.758 0 00-1.75-1.75zm0 0a1.75 1.75 0 101.75 1.75 1.758 1.758 0 00-1.75-1.75zm0 0a1.75 1.75 0 101.75 1.75 1.758 1.758 0 00-1.75-1.75zm0-2.25a4 4 0 100 8 4 4 0 000-8zm0 6.75a2.75 2.75 0 110-5.5 2.75 2.75 0 010 5.5zm0-4.5a1.75 1.75 0 101.75 1.75 1.758 1.758 0 00-1.75-1.75zm0 0a1.75 1.75 0 101.75 1.75 1.758 1.758 0 00-1.75-1.75zm0 0a1.75 1.75 0 101.75 1.75 1.758 1.758 0 00-1.75-1.75zm0 0a1.75 1.75 0 101.75 1.75 1.758 1.758 0 00-1.75-1.75zm0 0a1.75 1.75 0 101.75 1.75 1.758 1.758 0 00-1.75-1.75zm0 0a1.75 1.75 0 101.75 1.75 1.758 1.758 0 00-1.75-1.75zM20 9.5a.5.5 0 100 1 .5.5 0 000-1zm1.5 10.25a1.75 1.75 0 101.75 1.75 1.758 1.758 0 00-1.75-1.75zm7.25 8.09a.496.496 0 00-.47-.34h-.56a.496.496 0 00-.47.34l-.75 2.23c.04.245.251.426.5.43h2a.514.514 0 00.5-.43l-.75-2.23zM32 9.5a.5.5 0 100 1 .5.5 0 000-1zm4 3a.5.5 0 100 1 .5.5 0 000-1zm-14.5 7.25a1.75 1.75 0 101.75 1.75 1.758 1.758 0 00-1.75-1.75zm0 0a1.75 1.75 0 101.75 1.75 1.758 1.758 0 00-1.75-1.75zm0 0a1.75 1.75 0 101.75 1.75 1.758 1.758 0 00-1.75-1.75zm0 0a1.75 1.75 0 101.75 1.75 1.758 1.758 0 00-1.75-1.75zm0 0a1.75 1.75 0 101.75 1.75 1.758 1.758 0 00-1.75-1.75zm0 0a1.75 1.75 0 101.75 1.75 1.758 1.758 0 00-1.75-1.75zm0 0a1.75 1.75 0 101.75 1.75 1.758 1.758 0 00-1.75-1.75zm0 0a1.75 1.75 0 101.75 1.75 1.758 1.758 0 00-1.75-1.75zm0-2.25a4 4 0 100 8 4 4 0 000-8zm0 6.75a2.75 2.75 0 110-5.5 2.75 2.75 0 010 5.5zm0-4.5a1.75 1.75 0 101.75 1.75 1.758 1.758 0 00-1.75-1.75zm0 0a1.75 1.75 0 101.75 1.75 1.758 1.758 0 00-1.75-1.75zm0 0a1.75 1.75 0 101.75 1.75 1.758 1.758 0 00-1.75-1.75zm0 0a1.75 1.75 0 101.75 1.75 1.758 1.758 0 00-1.75-1.75zm0 0a1.75 1.75 0 101.75 1.75 1.758 1.758 0 00-1.75-1.75zm0 0a1.75 1.75 0 101.75 1.75 1.758 1.758 0 00-1.75-1.75zm0 0a1.75 1.75 0 101.75 1.75 1.758 1.758 0 00-1.75-1.75zm0 0a1.75 1.75 0 101.75 1.75 1.758 1.758 0 00-1.75-1.75zm0 0a1.75 1.75 0 101.75 1.75 1.758 1.758 0 00-1.75-1.75zm0 0a1.75 1.75 0 101.75 1.75 1.758 1.758 0 00-1.75-1.75zm0 0a1.75 1.75 0 101.75 1.75 1.758 1.758 0 00-1.75-1.75zm0 0a1.75 1.75 0 101.75 1.75 1.758 1.758 0 00-1.75-1.75zm0 0a1.75 1.75 0 101.75 1.75 1.758 1.758 0 00-1.75-1.75zm0 0a1.75 1.75 0 101.75 1.75 1.758 1.758 0 00-1.75-1.75zm0 0a1.75 1.75 0 101.75 1.75 1.758 1.758 0 00-1.75-1.75zm0 0a1.75 1.75 0 101.75 1.75 1.758 1.758 0 00-1.75-1.75zm0-2.25a4 4 0 100 8 4 4 0 000-8zm0 6.75a2.75 2.75 0 110-5.5 2.75 2.75 0 010 5.5zm0-4.5a1.75 1.75 0 101.75 1.75 1.758 1.758 0 00-1.75-1.75zm0 0a1.75 1.75 0 101.75 1.75 1.758 1.758 0 00-1.75-1.75zm0 0a1.75 1.75 0 101.75 1.75 1.758 1.758 0 00-1.75-1.75zm0 0a1.75 1.75 0 101.75 1.75 1.758 1.758 0 00-1.75-1.75zm0 0a1.75 1.75 0 101.75 1.75 1.758 1.758 0 00-1.75-1.75zm0 0a1.75 1.75 0 101.75 1.75 1.758 1.758 0 00-1.75-1.75zm0 0a1.75 1.75 0 101.75 1.75 1.758 1.758 0 00-1.75-1.75zm0 0a1.75 1.75 0 101.75 1.75 1.758 1.758 0 00-1.75-1.75zM20 9.5a.5.5 0 100 1 .5.5 0 000-1zm12 0a.5.5 0 100 1 .5.5 0 000-1zm4 3a.5.5 0 100 1 .5.5 0 000-1zm-16-3a.5.5 0 100 1 .5.5 0 000-1zm12 0a.5.5 0 100 1 .5.5 0 000-1zm4 3a.5.5 0 100 1 .5.5 0 000-1zm4 37h-2.79l1.56 1.56c.47.469.732 1.106.73 1.77V56h2v-5a1.498 1.498 0 00-1.5-1.5zm-1.94 2.27l-2.41-2.42-1.42-1.41a2.488 2.488 0 01-.73-1.77v-1.45a4.638 4.638 0 01-1.5.91v3.3c0 .335.17.647.45.83l1.21.81a2.993 2.993 0 011.34 2.5V56h3.5v-3.17c0-.398-.158-.78-.44-1.06zM16 49.5a1.498 1.498 0 00-1.5 1.5v5h2v-3.17a2.488 2.488 0 01.73-1.77l1.56-1.56H16zm6.5-4.78v1.45a2.488 2.488 0 01-.73 1.77l-1.42 1.41-2.41 2.42c-.282.28-.44.662-.44 1.06V56H21v-2.93a2.993 2.993 0 011.34-2.5l1.21-.81a.995.995 0 00.45-.83v-3.3a4.638 4.638 0 01-1.5-.91zm10.05 7.52l-1.21-.81a2.993 2.993 0 01-1.34-2.5v-2.97h-4v2.97a2.993 2.993 0 01-1.34 2.5l-1.21.81a.995.995 0 00-.45.83V56h10v-2.93a.995.995 0 00-.45-.83zM16.89 34.5a10.54 10.54 0 001.72 2.08c.32.3.61.61.89.91V34.5h-2.61zm-1.03-3c.078.688.253 1.361.52 2h3.12v-2h-3.64zm2.47-3h-2.5c-.03.69-.05 1.36-.04 2h3.71v-.93a1.122 1.122 0 00-1.17-1.07zM5 48.5a2.5 2.5 0 100 5 2.5 2.5 0 000-5zm.71 3.21a1.014 1.014 0 01-1.42 0A1.033 1.033 0 014 51a.996.996 0 01.08-.38 1.004 1.004 0 011.63-.33c.09.096.162.208.21.33.051.12.079.25.08.38a1.051 1.051 0 01-.29.71zM5 46a5 5 0 100 10 5 5 0 000-10zm0 8.5a3.5 3.5 0 110-7 3.5 3.5 0 010 7zm11-5a1.498 1.498 0 00-1.5 1.5v5h2v-3.17a2.488 2.488 0 01.73-1.77l1.56-1.56H16zm6.5-4.78v1.45a2.488 2.488 0 01-.73 1.77l-1.42 1.41-2.41 2.42c-.282.28-.44.662-.44 1.06V56H21v-2.93a2.993 2.993 0 011.34-2.5l1.21-.81a.995.995 0 00.45-.83v-3.3a4.638 4.638 0 01-1.5-.91zM16 49.5a1.498 1.498 0 00-1.5 1.5v5h2v-3.17a2.488 2.488 0 01.73-1.77l1.56-1.56H16zm6.5-4.78v1.45a2.488 2.488 0 01-.73 1.77l-1.42 1.41-2.41 2.42c-.282.28-.44.662-.44 1.06V56H21v-2.93a2.993 2.993 0 011.34-2.5l1.21-.81a.995.995 0 00.45-.83v-3.3a4.638 4.638 0 01-1.5-.91zM16 49.5a1.498 1.498 0 00-1.5 1.5v5h2v-3.17a2.488 2.488 0 01.73-1.77l1.56-1.56H16zm-11-1a2.5 2.5 0 100 5 2.5 2.5 0 000-5zm.71 3.21a1.014 1.014 0 01-1.42 0A1.033 1.033 0 014 51a.996.996 0 01.08-.38 1.004 1.004 0 011.63-.33c.09.096.162.208.21.33.051.12.079.25.08.38a1.051 1.051 0 01-.29.71zM5 48.5a2.5 2.5 0 100 5 2.5 2.5 0 000-5zm.71 3.21a1.014 1.014 0 01-1.42 0A1.033 1.033 0 014 51a.996.996 0 01.08-.38 1.004 1.004 0 011.63-.33c.09.096.162.208.21.33.051.12.079.25.08.38a1.051 1.051 0 01-.29.71zM5 46a5 5 0 100 10 5 5 0 000-10zm0 8.5a3.5 3.5 0 110-7 3.5 3.5 0 010 7zm17.5-9.78v1.45a2.488 2.488 0 01-.73 1.77l-1.42 1.41-2.41 2.42c-.282.28-.44.662-.44 1.06V56H21v-2.93a2.993 2.993 0 011.34-2.5l1.21-.81a.995.995 0 00.45-.83v-3.3a4.638 4.638 0 01-1.5-.91zM16 49.5a1.498 1.498 0 00-1.5 1.5v5h2v-3.17a2.488 2.488 0 01.73-1.77l1.56-1.56H16zm-11-1a2.5 2.5 0 100 5 2.5 2.5 0 000-5zm.71 3.21a1.014 1.014 0 01-1.42 0A1.033 1.033 0 014 51a.996.996 0 01.08-.38 1.004 1.004 0 011.63-.33c.09.096.162.208.21.33.051.12.079.25.08.38a1.051 1.051 0 01-.29.71zM5 48.5a2.5 2.5 0 100 5 2.5 2.5 0 000-5zm.71 3.21a1.014 1.014 0 01-1.42 0A1.033 1.033 0 014 51a.996.996 0 01.08-.38 1.004 1.004 0 011.63-.33c.09.096.162.208.21.33.051.12.079.25.08.38a1.051 1.051 0 01-.29.71zM5 46a5 5 0 100 10 5 5 0 000-10zm0 8.5a3.5 3.5 0 110-7 3.5 3.5 0 010 7zm17.5-9.78v1.45a2.488 2.488 0 01-.73 1.77l-1.42 1.41-2.41 2.42c-.282.28-.44.662-.44 1.06V56H21v-2.93a2.993 2.993 0 011.34-2.5l1.21-.81a.995.995 0 00.45-.83v-3.3a4.638 4.638 0 01-1.5-.91zM16 49.5a1.498 1.498 0 00-1.5 1.5v5h2v-3.17a2.488 2.488 0 01.73-1.77l1.56-1.56H16zm-11-1a2.5 2.5 0 100 5 2.5 2.5 0 000-5zm.71 3.21a1.014 1.014 0 01-1.42 0A1.033 1.033 0 014 51a.996.996 0 01.08-.38 1.004 1.004 0 011.63-.33c.09.096.162.208.21.33.051.12.079.25.08.38a1.051 1.051 0 01-.29.71zM5 48.5a2.5 2.5 0 100 5 2.5 2.5 0 000-5zm.71 3.21a1.014 1.014 0 01-1.42 0A1.033 1.033 0 014 51a.996.996 0 01.08-.38 1.004 1.004 0 011.63-.33c.09.096.162.208.21.33.051.12.079.25.08.38a1.051 1.051 0 01-.29.71zM5 46a5 5 0 100 10 5 5 0 000-10zm0 8.5a3.5 3.5 0 110-7 3.5 3.5 0 010 7zm17.5-9.78v1.45a2.488 2.488 0 01-.73 1.77l-1.42 1.41-2.41 2.42c-.282.28-.44.662-.44 1.06V56H21v-2.93a2.993 2.993 0 011.34-2.5l1.21-.81a.995.995 0 00.45-.83v-3.3a4.638 4.638 0 01-1.5-.91zM16 49.5a1.498 1.498 0 00-1.5 1.5v5h2v-3.17a2.488 2.488 0 01.73-1.77l1.56-1.56H16zm3.79-1l1.27-1.27c.282-.28.44-.662.44-1.06v-2.54c-.38-.5-.74-1.04-1.11-1.61-.41-.63-.86-1.31-1.39-2.01v1.78a4.968 4.968 0 01-3.92 4.88l-3.99.89A6.9 6.9 0 0112 51a6.97 6.97 0 01-2.11 5h3.61v-5a2.5 2.5 0 012.5-2.5h3.79zM5 46a5 5 0 100 10 5 5 0 000-10zm0 8.5a3.5 3.5 0 110-7 3.5 3.5 0 010 7zm11-5a1.498 1.498 0 00-1.5 1.5v5h2v-3.17a2.488 2.488 0 01.73-1.77l1.56-1.56H16zm6.5-4.78v1.45a2.488 2.488 0 01-.73 1.77l-1.42 1.41-2.41 2.42c-.282.28-.44.662-.44 1.06V56H21v-2.93a2.993 2.993 0 011.34-2.5l1.21-.81a.995.995 0 00.45-.83v-3.3a4.638 4.638 0 01-1.5-.91zM5 48.5a2.5 2.5 0 100 5 2.5 2.5 0 000-5zm.71 3.21a1.014 1.014 0 01-1.42 0A1.033 1.033 0 014 51a.996.996 0 01.08-.38 1.004 1.004 0 011.63-.33c.09.096.162.208.21.33.051.12.079.25.08.38a1.051 1.051 0 01-.29.71zM5 46a5 5 0 100 10 5 5 0 000-10zm0 8.5a3.5 3.5 0 110-7 3.5 3.5 0 010 7zm0-6a2.5 2.5 0 100 5 2.5 2.5 0 000-5zm.71 3.21a1.014 1.014 0 01-1.42 0A1.033 1.033 0 014 51a.996.996 0 01.08-.38 1.004 1.004 0 011.63-.33c.09.096.162.208.21.33.051.12.079.25.08.38a1.051 1.051 0 01-.29.71zM16 49.5a1.498 1.498 0 00-1.5 1.5v5h2v-3.17a2.488 2.488 0 01.73-1.77l1.56-1.56H16zm6.5-4.78v1.45a2.488 2.488 0 01-.73 1.77l-1.42 1.41-2.41 2.42c-.282.28-.44.662-.44 1.06V56H21v-2.93a2.993 2.993 0 011.34-2.5l1.21-.81a.995.995 0 00.45-.83v-3.3a4.638 4.638 0 01-1.5-.91zM5 48.5a2.5 2.5 0 100 5 2.5 2.5 0 000-5zm.71 3.21a1.014 1.014 0 01-1.42 0A1.033 1.033 0 014 51a.996.996 0 01.08-.38 1.004 1.004 0 011.63-.33c.09.096.162.208.21.33.051.12.079.25.08.38a1.051 1.051 0 01-.29.71zM5 46a5 5 0 100 10 5 5 0 000-10zm0 8.5a3.5 3.5 0 110-7 3.5 3.5 0 010 7zm0-6a2.5 2.5 0 100 5 2.5 2.5 0 000-5zm.71 3.21a1.014 1.014 0 01-1.42 0A1.033 1.033 0 014 51a.996.996 0 01.08-.38 1.004 1.004 0 011.63-.33c.09.096.162.208.21.33.051.12.079.25.08.38a1.051 1.051 0 01-.29.71zM16 49.5a1.498 1.498 0 00-1.5 1.5v5h2v-3.17a2.488 2.488 0 01.73-1.77l1.56-1.56H16zm6.5-4.78v1.45a2.488 2.488 0 01-.73 1.77l-1.42 1.41-2.41 2.42c-.282.28-.44.662-.44 1.06V56H21v-2.93a2.993 2.993 0 011.34-2.5l1.21-.81a.995.995 0 00.45-.83v-3.3a4.638 4.638 0 01-1.5-.91zM5 48.5a2.5 2.5 0 100 5 2.5 2.5 0 000-5zm.71 3.21a1.014 1.014 0 01-1.42 0A1.033 1.033 0 014 51a.996.996 0 01.08-.38 1.004 1.004 0 011.63-.33c.09.096.162.208.21.33.051.12.079.25.08.38a1.051 1.051 0 01-.29.71zM5 46a5 5 0 100 10 5 5 0 000-10zm0 8.5a3.5 3.5 0 110-7 3.5 3.5 0 010 7zm0-6a2.5 2.5 0 100 5 2.5 2.5 0 000-5zm.71 3.21a1.014 1.014 0 01-1.42 0A1.033 1.033 0 014 51a.996.996 0 01.08-.38 1.004 1.004 0 011.63-.33c.09.096.162.208.21.33.051.12.079.25.08.38a1.051 1.051 0 01-.29.71zM16 49.5a1.498 1.498 0 00-1.5 1.5v5h2v-3.17a2.488 2.488 0 01.73-1.77l1.56-1.56H16zm6.5-4.78v1.45a2.488 2.488 0 01-.73 1.77l-1.42 1.41-2.41 2.42c-.282.28-.44.662-.44 1.06V56H21v-2.93a2.993 2.993 0 011.34-2.5l1.21-.81a.995.995 0 00.45-.83v-3.3a4.638 4.638 0 01-1.5-.91zM16 49.5a1.498 1.498 0 00-1.5 1.5v5h2v-3.17a2.488 2.488 0 01.73-1.77l1.56-1.56H16zm6.5-4.78v1.45a2.488 2.488 0 01-.73 1.77l-1.42 1.41-2.41 2.42c-.282.28-.44.662-.44 1.06V56H21v-2.93a2.993 2.993 0 011.34-2.5l1.21-.81a.995.995 0 00.45-.83v-3.3a4.638 4.638 0 01-1.5-.91zM46.11 56A6.97 6.97 0 0144 51a6.9 6.9 0 01.91-3.44l-3.99-.89A4.968 4.968 0 0137 41.79v-1.78c-.53.7-.98 1.38-1.39 2.01-.37.57-.73 1.11-1.11 1.61v2.54c0 .398.158.779.44 1.06l1.27 1.27H40a2.5 2.5 0 012.5 2.5v5h3.61zM51 48.5a2.5 2.5 0 100 5 2.5 2.5 0 000-5zm.71 3.21a1 1 0 01-1.63-1.09.968.968 0 011.3-.54c.121.05.233.122.33.21.09.096.162.208.21.33.051.12.079.25.08.38a1.051 1.051 0 01-.29.71zM51 48.5a2.5 2.5 0 100 5 2.5 2.5 0 000-5zm.71 3.21a1 1 0 01-1.63-1.09.968.968 0 011.3-.54c.121.05.233.122.33.21.09.096.162.208.21.33.051.12.079.25.08.38a1.051 1.051 0 01-.29.71zM51 48.5a2.5 2.5 0 100 5 2.5 2.5 0 000-5zm.71 3.21a1 1 0 01-1.63-1.09.968.968 0 011.3-.54c.121.05.233.122.33.21.09.096.162.208.21.33.051.12.079.25.08.38a1.051 1.051 0 01-.29.71zM51 48.5a2.5 2.5 0 100 5 2.5 2.5 0 000-5zm.71 3.21a1 1 0 01-1.63-1.09.968.968 0 011.3-.54c.121.05.233.122.33.21.09.096.162.208.21.33.051.12.079.25.08.38a1.051 1.051 0 01-.29.71zM51 46a5 5 0 100 10 5 5 0 000-10zm0 8.5a3.5 3.5 0 110-7 3.5 3.5 0 010 7zm0-6a2.5 2.5 0 100 5 2.5 2.5 0 000-5zm.71 3.21a1 1 0 01-1.63-1.09.968.968 0 011.3-.54c.121.05.233.122.33.21.09.096.162.208.21.33.051.12.079.25.08.38a1.051 1.051 0 01-.29.71zM51 48.5a2.5 2.5 0 100 5 2.5 2.5 0 000-5zm.71 3.21a1 1 0 01-1.63-1.09.968.968 0 011.3-.54c.121.05.233.122.33.21.09.096.162.208.21.33.051.12.079.25.08.38a1.051 1.051 0 01-.29.71zM51 48.5a2.5 2.5 0 100 5 2.5 2.5 0 000-5zm.71 3.21a1 1 0 01-1.63-1.09.968.968 0 011.3-.54c.121.05.233.122.33.21.09.096.162.208.21.33.051.12.079.25.08.38a1.051 1.051 0 01-.29.71z"></path></g><!----><g data-v-423bf9ae="" id="e2c8c194-9b07-44f5-a081-8372edcc624c" fill="#ffffff" transform="matrix(0.5568305614668042,0,0,0.5568305614668042,109.7104422465609,58.38519027831605)"><path d="M0.52 12.39C0.52 12.63 0.53 12.68 0.73 12.68C0.91 12.68 1.29 12.64 1.90 12.64C2.53 12.64 3.09 12.68 3.42 12.68C3.58 12.68 3.58 12.61 3.58 12.40C3.58 12.24 3.58 12.18 3.42 12.18L2.21 12.18C2.17 12.18 2.16 11.54 2.16 10.79C2.16 9.46 2.17 7.48 2.17 5.99C2.17 5.25 2.17 4.84 2.18 4.28C2.18 4.02 2.25 4.14 2.38 4.28L9.27 12.66C9.35 12.75 9.44 12.89 9.55 12.89C9.66 12.89 9.73 12.77 9.73 12.54C9.73 12.39 9.90 6.65 9.91 4.48C9.91 4.06 9.94 3.70 9.97 3.70L10.60 3.70C10.82 3.70 10.88 3.68 10.88 3.49C10.88 3.25 10.88 3.19 10.68 3.19C10.49 3.19 10.05 3.23 9.49 3.23C8.88 3.23 8.08 3.19 7.98 3.19C7.81 3.19 7.81 3.26 7.81 3.47C7.81 3.64 7.81 3.70 7.98 3.70L9.28 3.70C9.30 3.70 9.30 4.33 9.30 4.44C9.30 5.85 9.32 8.33 9.32 9.70L9.32 10.29C9.32 10.57 9.31 10.65 9.09 10.37L3.40 3.39C3.29 3.25 3.26 3.19 3.09 3.19C3.01 3.19 2.63 3.23 2.32 3.23C2.03 3.23 0.95 3.19 0.76 3.19C0.59 3.19 0.56 3.26 0.56 3.47C0.56 3.64 0.59 3.70 0.76 3.70L1.67 3.70C1.67 4.17 1.62 8.53 1.55 10.79C1.53 11.69 1.54 12.18 1.43 12.18L0.78 12.18C0.56 12.18 0.52 12.19 0.52 12.39ZM18.98 8.15C18.98 11.17 21.32 12.80 23.58 12.80C26.36 12.80 28.34 10.89 28.34 8.06C28.34 5.33 26.59 3.11 23.79 3.11C21.18 3.11 18.98 5.10 18.98 8.15ZM20.38 7.77C20.38 5.64 21.67 3.58 23.65 3.58C25.89 3.58 26.96 5.81 26.96 7.94C26.96 10.08 25.86 12.32 23.59 12.32C21.60 12.32 20.38 10.28 20.38 7.77ZM46.24 3.49C46.24 3.72 46.35 3.74 46.52 3.74L47.14 3.74C47.19 3.74 47.26 4.79 47.26 5.71C47.26 5.80 47.32 8.27 47.32 9.83L47.32 11.17C47.32 11.84 47.31 12.18 47.25 12.18L46.66 12.18C46.44 12.18 46.37 12.19 46.37 12.39C46.37 12.63 46.38 12.68 46.58 12.68C46.79 12.68 47.63 12.64 48.05 12.64C48.47 12.64 49.41 12.68 49.73 12.68C49.90 12.68 49.92 12.61 49.92 12.40C49.92 12.24 49.90 12.18 49.73 12.18L48.59 12.18C48.54 12.18 48.55 10.16 48.51 8.33C48.51 8.08 48.50 8.09 48.69 8.09L51.11 8.09C51.81 8.09 51.84 8.19 51.84 8.30L51.84 9.16C51.84 9.28 52.02 9.28 52.14 9.28C52.23 9.28 52.36 9.28 52.36 9.17C52.36 8.99 52.33 8.33 52.33 7.83C52.33 7.32 52.36 6.82 52.36 6.69C52.36 6.58 52.25 6.58 52.12 6.58C51.95 6.58 51.84 6.58 51.84 6.71L51.84 7.45C51.84 7.62 51.39 7.63 51.11 7.63L48.69 7.63C48.48 7.63 48.51 7.66 48.51 7.45C48.50 7.13 48.48 6.15 48.48 5.26C48.48 4.52 48.50 3.71 48.57 3.71C49.97 3.71 52.15 3.75 52.44 3.79C52.44 3.96 52.40 4.82 52.40 4.89C52.40 5.04 52.47 5.10 52.65 5.10C52.85 5.10 52.92 5.08 52.92 4.94C52.92 3.85 52.98 3.36 52.98 3.09C52.98 2.93 52.89 2.90 52.70 2.90C52.57 2.90 52.50 2.90 52.47 3.11C52.46 3.25 52.53 3.25 51.58 3.25C50.97 3.25 48.69 3.29 47.95 3.29C47.46 3.29 46.52 3.25 46.42 3.25C46.30 3.25 46.24 3.30 46.24 3.49ZM59.96 12.39C59.96 12.63 59.96 12.68 60.16 12.68C60.33 12.68 60.65 12.64 61.22 12.64C61.84 12.64 62.38 12.68 62.54 12.68C62.71 12.68 62.71 12.61 62.71 12.40C62.71 12.24 62.71 12.18 62.54 12.18L61.46 12.18C61.46 12.18 61.45 12.18 61.45 12.17C61.46 11.87 62.23 9.90 62.58 9.02C62.65 8.83 62.66 8.79 62.87 8.79L65.70 8.79C65.84 8.79 65.84 8.81 65.91 9.03C66.18 9.77 66.89 11.89 66.89 12.17C66.89 12.18 66.88 12.18 66.88 12.18L66.11 12.18C65.88 12.18 65.87 12.19 65.87 12.39C65.87 12.63 65.88 12.68 66.05 12.68C66.37 12.68 67.24 12.64 67.66 12.64C68.08 12.64 68.75 12.68 68.96 12.68C69.10 12.68 69.12 12.61 69.12 12.40C69.12 12.24 69.10 12.18 68.96 12.18L68.47 12.18C68.38 12.18 67.35 9.34 66.79 7.78L65.11 3.07C65.10 3.00 65.03 2.94 64.95 2.94C64.82 2.94 64.72 3.16 64.64 3.35C64.48 3.71 64.25 3.84 64.13 4.13L62.65 7.57C62.47 8.01 60.76 12.18 60.63 12.18L60.21 12.18C59.99 12.18 59.96 12.19 59.96 12.39ZM62.86 8.33C62.86 8.30 62.89 8.23 62.93 8.13L64.30 4.77C64.34 4.66 64.37 4.61 64.40 4.61C64.41 4.61 64.43 4.63 64.47 4.77L65.63 8.18C65.66 8.25 65.67 8.29 65.67 8.32C65.67 8.36 65.65 8.37 65.55 8.37L63.04 8.37C62.86 8.37 62.86 8.34 62.86 8.33ZM76.87 12.39C76.87 12.63 76.89 12.68 77.08 12.68C77.41 12.68 78.30 12.64 78.72 12.64C79.14 12.64 80.09 12.68 80.42 12.68C80.58 12.68 80.60 12.61 80.60 12.40C80.60 12.24 80.57 12.18 80.40 12.18L79.39 12.18C79.30 12.18 79.27 10.12 79.27 8.46C79.27 8.30 79.27 8.30 79.44 8.30L79.70 8.30C79.91 8.30 79.91 8.32 79.98 8.40L83.02 12.00C83.12 12.11 83.19 12.18 82.98 12.18L82.52 12.18C82.33 12.18 82.26 12.19 82.26 12.39C82.26 12.63 82.26 12.68 82.46 12.68C82.78 12.68 83.48 12.64 83.90 12.64C84.32 12.64 85.01 12.68 85.33 12.68C85.50 12.68 85.50 12.61 85.50 12.40C85.50 12.24 85.50 12.18 85.33 12.18L85.11 12.18C84.92 12.18 84.83 12.10 84.70 11.96L80.93 7.62C80.79 7.45 80.77 7.50 80.89 7.36C81.34 6.83 83.87 3.77 83.94 3.77L84.62 3.77C84.84 3.77 84.87 3.75 84.87 3.56C84.87 3.32 84.87 3.26 84.67 3.26C84.48 3.26 84.03 3.30 83.51 3.30C82.98 3.30 82.50 3.26 82.28 3.26C82.10 3.26 82.00 3.28 82.00 3.51C82.00 3.75 82.11 3.77 82.28 3.77L82.84 3.77C83.01 3.77 83.01 3.84 82.89 3.99C82.36 4.66 80.01 7.92 79.72 7.92L79.41 7.92C79.27 7.92 79.27 7.88 79.27 7.69L79.27 5.94C79.27 5.21 79.34 3.77 79.44 3.77L80.21 3.77C80.43 3.77 80.47 3.75 80.47 3.56C80.47 3.32 80.46 3.26 80.26 3.26C79.94 3.26 79.17 3.30 78.75 3.30C78.16 3.30 77.50 3.26 77.28 3.26C77.10 3.26 77 3.28 77 3.51C77 3.75 77.11 3.77 77.28 3.77L77.92 3.77C77.98 3.77 78.01 4.86 78.01 5.78L78.01 9.84C78.01 11.00 77.99 12.18 77.91 12.18L77.17 12.18C76.94 12.18 76.87 12.19 76.87 12.39ZM92.97 12.39C92.97 12.63 93.00 12.68 93.20 12.68C93.52 12.68 94.49 12.64 94.91 12.64C95.33 12.64 99.83 12.68 100.16 12.68C100.28 12.68 100.44 12.66 100.44 12.49C100.44 12.07 100.48 11.23 100.48 10.53C100.48 10.39 100.32 10.39 100.20 10.39C100.09 10.39 99.96 10.39 99.96 10.51C99.95 11.06 99.95 11.41 99.92 11.76C99.89 12.01 99.89 12.04 99.79 12.04C99.64 12.04 97.01 12.08 95.51 12.08C95.44 12.08 95.40 10.11 95.35 8.26C95.35 8.06 95.40 8.09 95.54 8.09L97.82 8.09C98.52 8.09 98.55 8.20 98.55 8.30L98.55 9.00C98.55 9.14 98.73 9.14 98.84 9.14C98.94 9.14 99.06 9.13 99.06 9.02C99.06 8.83 99.04 8.33 99.04 7.83C99.04 7.32 99.06 6.83 99.06 6.71C99.06 6.59 98.92 6.58 98.83 6.58C98.71 6.58 98.55 6.59 98.55 6.72L98.55 7.45C98.55 7.62 98.10 7.63 97.82 7.63L95.48 7.63C95.37 7.63 95.35 7.63 95.35 7.45C95.34 6.75 95.33 6.06 95.33 5.46C95.33 5.12 95.33 3.71 95.41 3.71C96.64 3.71 99.15 3.75 99.15 3.81C99.15 3.99 99.11 4.83 99.11 4.89C99.11 5.04 99.18 5.10 99.36 5.10C99.55 5.10 99.62 5.08 99.62 4.94C99.62 3.85 99.68 3.36 99.68 3.09C99.68 2.91 99.60 2.90 99.40 2.90C99.20 2.90 99.20 2.95 99.18 3.11C99.16 3.25 99.23 3.25 98.32 3.25C97.71 3.25 95.56 3.29 94.79 3.29C94.30 3.29 93.37 3.25 93.27 3.25C93.14 3.25 93.09 3.30 93.09 3.49C93.09 3.72 93.16 3.74 93.32 3.74L93.98 3.74C94.04 3.74 94.11 4.79 94.11 5.71C94.11 5.80 94.16 8.27 94.16 9.83L94.16 11.17C94.16 11.84 94.14 12.18 94.11 12.18L93.25 12.18C93.03 12.18 92.97 12.21 92.97 12.39ZM108.65 5.77C108.65 9.07 113.64 8.20 113.64 10.65C113.64 11.59 112.80 12.31 111.82 12.31C110.99 12.31 109.40 11.83 109.37 11.47L109.28 10.15C109.27 9.97 109.20 9.91 109.02 9.91L108.95 9.91C108.74 9.91 108.74 10.00 108.74 10.12C108.74 10.32 108.85 11.66 108.88 12.17C108.89 12.38 110.15 12.85 111.69 12.85C113.26 12.85 114.87 11.87 114.87 10.11C114.87 6.79 109.90 7.87 109.90 5.32C109.90 4.31 110.68 3.56 111.72 3.56C112.74 3.56 113.83 4.58 113.83 4.89C113.83 5.01 113.79 5.73 113.79 5.78C113.79 5.92 113.83 5.99 114.10 5.99C114.34 5.99 114.35 5.94 114.35 5.75C114.35 5.04 114.44 3.68 114.44 3.53C114.44 3.30 114.39 3.29 114.13 3.29C113.90 3.29 113.89 3.32 113.88 3.53C113.88 3.61 113.86 3.78 113.82 3.78C113.76 3.78 113.68 3.74 113.61 3.68C112.81 3.14 112.20 3.08 111.69 3.08C110.17 3.08 108.65 4.17 108.65 5.77ZM122.84 14.55C122.84 14.64 122.91 14.83 123.03 14.83C123.20 14.83 124.64 13.45 124.64 12.25C124.64 11.86 123.86 11.33 123.61 11.33C123.51 11.33 122.89 11.66 122.89 11.93C122.89 12.21 123.82 12.45 123.82 13.08C123.82 13.78 122.84 14.42 122.84 14.55ZM141.50 15.23C141.50 15.48 141.96 15.61 142.28 15.61C142.95 15.61 143.43 15.13 143.84 14.70C144.94 13.52 145.05 11.98 145.05 10.78L145.05 7.42C145.05 5.71 145.07 3.70 145.12 3.70L145.84 3.70C146.06 3.70 146.10 3.68 146.10 3.49C146.10 3.25 146.09 3.19 145.89 3.19C145.66 3.19 145.01 3.23 144.44 3.23C143.75 3.23 142.90 3.19 142.67 3.19C142.49 3.19 142.39 3.21 142.39 3.44C142.39 3.68 142.51 3.70 142.67 3.70L143.60 3.70C143.68 3.70 143.72 4.79 143.72 5.71L143.72 12.67C143.72 13.90 143.68 14.59 143.21 14.59C142.94 14.59 142.73 14.29 142.48 14.29C142.37 14.29 141.50 14.70 141.50 15.23ZM154.14 3.51C154.14 3.75 154.22 3.77 154.39 3.77L154.92 3.77C154.98 3.77 154.98 4.12 154.98 4.55C154.98 5.66 154.97 8.96 154.97 9.42C154.97 11.13 155.22 12.80 158.07 12.80C159.15 12.80 160.31 12.38 160.97 12.00C161.22 11.86 161.52 11.72 161.60 11.72C161.87 11.72 162.13 12.74 162.47 12.74C162.79 12.74 162.81 12.35 162.81 12.25C162.81 11.96 162.86 10.08 162.90 8.16C162.96 6.12 162.95 3.77 163.06 3.77L163.38 3.77C163.60 3.77 163.67 3.75 163.67 3.56C163.67 3.32 163.63 3.26 163.44 3.26C163.30 3.26 162.76 3.30 162.34 3.30C161.92 3.30 161.13 3.26 160.90 3.26C160.72 3.26 160.62 3.28 160.62 3.51C160.62 3.75 160.73 3.77 160.90 3.77L161.60 3.77C161.67 3.77 161.69 4.30 161.69 4.87L161.69 9.14C161.69 11.19 161.69 11.12 161.35 11.34C160.96 11.61 160.15 12.08 158.97 12.08C157.00 12.08 156.20 11.17 156.20 9.41C156.20 8.82 156.27 3.77 156.38 3.77L157.29 3.77C157.51 3.77 157.56 3.75 157.56 3.56C157.56 3.32 157.54 3.26 157.35 3.26C157.02 3.26 156.14 3.30 155.72 3.30C155.30 3.30 154.62 3.26 154.39 3.26C154.21 3.26 154.14 3.28 154.14 3.51ZM171.92 5.77C171.92 9.07 176.90 8.20 176.90 10.65C176.90 11.59 176.06 12.31 175.08 12.31C174.26 12.31 172.66 11.83 172.63 11.47L172.55 10.15C172.54 9.97 172.47 9.91 172.28 9.91L172.21 9.91C172.00 9.91 172.00 10.00 172.00 10.12C172.00 10.32 172.12 11.66 172.14 12.17C172.16 12.38 173.42 12.85 174.96 12.85C176.53 12.85 178.14 11.87 178.14 10.11C178.14 6.79 173.17 7.87 173.17 5.32C173.17 4.31 173.95 3.56 174.99 3.56C176.01 3.56 177.10 4.58 177.10 4.89C177.10 5.01 177.06 5.73 177.06 5.78C177.06 5.92 177.10 5.99 177.37 5.99C177.60 5.99 177.62 5.94 177.62 5.75C177.62 5.04 177.70 3.68 177.70 3.53C177.70 3.30 177.66 3.29 177.39 3.29C177.17 3.29 177.16 3.32 177.14 3.53C177.14 3.61 177.13 3.78 177.09 3.78C177.03 3.78 176.95 3.74 176.88 3.68C176.08 3.14 175.46 3.08 174.96 3.08C173.43 3.08 171.92 4.17 171.92 5.77ZM185.70 5.01C185.70 5.17 185.88 5.17 186.00 5.17C186.16 5.17 186.20 5.15 186.21 4.97L186.33 3.89C186.34 3.81 186.89 3.75 187.64 3.75L189.63 3.75C189.69 3.75 189.71 4.35 189.71 4.97C189.71 6.43 189.66 12.18 189.53 12.18L188.66 12.18C188.44 12.18 188.40 12.19 188.40 12.39C188.40 12.63 188.41 12.68 188.61 12.68C188.93 12.68 189.91 12.64 190.33 12.64C190.75 12.64 191.69 12.68 192.01 12.68C192.18 12.68 192.21 12.61 192.21 12.40C192.21 12.24 192.18 12.18 192.01 12.18L191.02 12.18C190.99 12.18 190.99 11.76 190.99 11.31C190.99 9.56 191.07 5.96 191.07 5.92C191.09 5.18 191.09 3.75 191.18 3.75L192.79 3.75C193.51 3.75 194.33 3.78 194.33 3.85C194.33 3.99 194.29 4.90 194.29 4.97C194.29 5.12 194.36 5.17 194.54 5.17C194.74 5.17 194.81 5.17 194.81 5.03C194.81 3.93 194.87 3.40 194.87 3.14C194.87 2.94 194.78 2.94 194.59 2.94C194.43 2.94 194.38 2.98 194.36 3.16C194.36 3.23 193.72 3.28 192.88 3.28L187.88 3.28C187.22 3.28 186.41 3.28 186.41 3.21L186.41 3.07C186.41 2.94 186.28 2.94 186.19 2.94C185.96 2.94 185.93 3.00 185.92 3.19C185.86 3.89 185.70 4.97 185.70 5.01ZM212.42 3.49C212.42 3.72 212.53 3.74 212.70 3.74L213.32 3.74C213.37 3.74 213.44 4.79 213.44 5.71C213.44 5.80 213.50 8.27 213.50 9.83L213.50 11.17C213.50 11.84 213.49 12.18 213.43 12.18L212.84 12.18C212.62 12.18 212.55 12.19 212.55 12.39C212.55 12.63 212.56 12.68 212.76 12.68C212.97 12.68 213.81 12.64 214.23 12.64C214.65 12.64 215.59 12.68 215.91 12.68C216.08 12.68 216.10 12.61 216.10 12.40C216.10 12.24 216.08 12.18 215.91 12.18L214.77 12.18C214.72 12.18 214.73 10.16 214.69 8.33C214.69 8.08 214.68 8.09 214.87 8.09L217.29 8.09C217.99 8.09 218.02 8.19 218.02 8.30L218.02 9.16C218.02 9.28 218.20 9.28 218.32 9.28C218.41 9.28 218.54 9.28 218.54 9.17C218.54 8.99 218.51 8.33 218.51 7.83C218.51 7.32 218.54 6.82 218.54 6.69C218.54 6.58 218.43 6.58 218.30 6.58C218.13 6.58 218.02 6.58 218.02 6.71L218.02 7.45C218.02 7.62 217.57 7.63 217.29 7.63L214.87 7.63C214.66 7.63 214.69 7.66 214.69 7.45C214.68 7.13 214.66 6.15 214.66 5.26C214.66 4.52 214.68 3.71 214.75 3.71C216.15 3.71 218.33 3.75 218.62 3.79C218.62 3.96 218.58 4.82 218.58 4.89C218.58 5.04 218.65 5.10 218.83 5.10C219.03 5.10 219.10 5.08 219.10 4.94C219.10 3.85 219.16 3.36 219.16 3.09C219.16 2.93 219.07 2.90 218.88 2.90C218.75 2.90 218.68 2.90 218.65 3.11C218.64 3.25 218.71 3.25 217.76 3.25C217.15 3.25 214.87 3.29 214.13 3.29C213.64 3.29 212.70 3.25 212.60 3.25C212.48 3.25 212.42 3.30 212.42 3.49ZM226.14 12.39C226.14 12.63 226.14 12.68 226.34 12.68C226.51 12.68 226.83 12.64 227.40 12.64C228.02 12.64 228.56 12.68 228.72 12.68C228.89 12.68 228.89 12.61 228.89 12.40C228.89 12.24 228.89 12.18 228.72 12.18L227.64 12.18C227.64 12.18 227.63 12.18 227.63 12.17C227.64 11.87 228.41 9.90 228.76 9.02C228.83 8.83 228.84 8.79 229.05 8.79L231.88 8.79C232.02 8.79 232.02 8.81 232.09 9.03C232.36 9.77 233.07 11.89 233.07 12.17C233.07 12.18 233.06 12.18 233.06 12.18L232.29 12.18C232.06 12.18 232.05 12.19 232.05 12.39C232.05 12.63 232.06 12.68 232.23 12.68C232.55 12.68 233.42 12.64 233.84 12.64C234.26 12.64 234.93 12.68 235.14 12.68C235.28 12.68 235.30 12.61 235.30 12.40C235.30 12.24 235.28 12.18 235.14 12.18L234.65 12.18C234.56 12.18 233.53 9.34 232.97 7.78L231.29 3.07C231.28 3.00 231.21 2.94 231.13 2.94C231.00 2.94 230.90 3.16 230.82 3.35C230.66 3.71 230.43 3.84 230.31 4.13L228.83 7.57C228.65 8.01 226.94 12.18 226.81 12.18L226.39 12.18C226.17 12.18 226.14 12.19 226.14 12.39ZM229.04 8.33C229.04 8.30 229.07 8.23 229.11 8.13L230.48 4.77C230.52 4.66 230.55 4.61 230.58 4.61C230.59 4.61 230.61 4.63 230.65 4.77L231.81 8.18C231.84 8.25 231.85 8.29 231.85 8.32C231.85 8.36 231.83 8.37 231.73 8.37L229.22 8.37C229.04 8.37 229.04 8.34 229.04 8.33ZM242.84 7.91C242.84 11.31 245.21 12.87 247.80 12.87C249.58 12.87 251.36 11.90 251.40 11.59C251.57 10.29 251.62 9.70 251.62 9.66C251.62 9.56 251.58 9.52 251.41 9.51C251.36 9.51 251.30 9.49 251.26 9.49C251.15 9.49 251.09 9.53 251.06 9.70L250.88 11.33C250.87 11.45 249.76 12.24 248.19 12.24C246.06 12.24 244.36 10.29 244.36 7.94C244.36 5.42 245.78 3.54 247.79 3.54C249.63 3.54 250.98 5.01 250.98 5.17C250.98 5.29 250.92 6.40 250.92 6.45C250.92 6.59 250.96 6.64 251.23 6.64C251.43 6.64 251.50 6.62 251.50 6.44C251.50 5.73 251.55 3.92 251.55 3.67C251.55 3.47 251.44 3.44 251.23 3.44C251.01 3.44 250.98 3.50 250.98 3.67L250.98 4.05C250.98 4.16 250.94 4.16 250.81 4.06C250.53 3.86 249.55 3.04 247.88 3.04C245.04 3.04 242.84 4.96 242.84 7.91ZM259.74 5.01C259.74 5.17 259.92 5.17 260.05 5.17C260.20 5.17 260.25 5.15 260.26 4.97L260.37 3.89C260.39 3.81 260.93 3.75 261.69 3.75L263.68 3.75C263.73 3.75 263.76 4.35 263.76 4.97C263.76 6.43 263.70 12.18 263.58 12.18L262.71 12.18C262.49 12.18 262.44 12.19 262.44 12.39C262.44 12.63 262.46 12.68 262.65 12.68C262.98 12.68 263.96 12.64 264.38 12.64C264.80 12.64 265.73 12.68 266.06 12.68C266.22 12.68 266.25 12.61 266.25 12.40C266.25 12.24 266.22 12.18 266.06 12.18L265.06 12.18C265.03 12.18 265.03 11.76 265.03 11.31C265.03 9.56 265.12 5.96 265.12 5.92C265.13 5.18 265.13 3.75 265.23 3.75L266.84 3.75C267.55 3.75 268.38 3.78 268.38 3.85C268.38 3.99 268.34 4.90 268.34 4.97C268.34 5.12 268.41 5.17 268.59 5.17C268.79 5.17 268.86 5.17 268.86 5.03C268.86 3.93 268.91 3.40 268.91 3.14C268.91 2.94 268.83 2.94 268.63 2.94C268.48 2.94 268.42 2.98 268.41 3.16C268.41 3.23 267.76 3.28 266.92 3.28L261.93 3.28C261.27 3.28 260.46 3.28 260.46 3.21L260.46 3.07C260.46 2.94 260.33 2.94 260.23 2.94C260.01 2.94 259.98 3.00 259.97 3.19C259.91 3.89 259.74 4.97 259.74 5.01ZM276.88 5.77C276.88 9.07 281.86 8.20 281.86 10.65C281.86 11.59 281.02 12.31 280.04 12.31C279.22 12.31 277.62 11.83 277.59 11.47L277.51 10.15C277.49 9.97 277.42 9.91 277.24 9.91L277.17 9.91C276.96 9.91 276.96 10.00 276.96 10.12C276.96 10.32 277.07 11.66 277.10 12.17C277.12 12.38 278.38 12.85 279.92 12.85C281.48 12.85 283.09 11.87 283.09 10.11C283.09 6.79 278.12 7.87 278.12 5.32C278.12 4.31 278.91 3.56 279.94 3.56C280.97 3.56 282.06 4.58 282.06 4.89C282.06 5.01 282.02 5.73 282.02 5.78C282.02 5.92 282.06 5.99 282.32 5.99C282.56 5.99 282.58 5.94 282.58 5.75C282.58 5.04 282.66 3.68 282.66 3.53C282.66 3.30 282.62 3.29 282.35 3.29C282.13 3.29 282.11 3.32 282.10 3.53C282.10 3.61 282.09 3.78 282.04 3.78C281.99 3.78 281.90 3.74 281.83 3.68C281.04 3.14 280.42 3.08 279.92 3.08C278.39 3.08 276.88 4.17 276.88 5.77Z"></path></g></svg>