<svg data-v-fde0c5aa="" xmlns="http://www.w3.org/2000/svg" viewBox="0 0 300 300" class="font"><!----><defs data-v-fde0c5aa=""><!----></defs><rect data-v-fde0c5aa="" fill="#594F40" x="0" y="0" width="300px" height="300px" class="logo-background-square"></rect><defs data-v-fde0c5aa=""><!----></defs><g data-v-fde0c5aa="" id="76b09759-8da6-481c-a3e2-e8d1d7b47f98" fill="#DA4F39" transform="matrix(6.478209833067675,0,0,6.478209833067675,37.343933991610136,99.21083237572748)"><path d="M0.71 10.23L0.71 10.23L0.81 6.30Q0.81 5.39 0.77 4.80L0.77 4.80Q0.70 3.75 0.53 3.49L0.53 3.49L0.48 3.40Q0.41 3.35 0.41 3.26L0.41 3.26Q0.41 3.00 1.11 2.83Q1.81 2.67 2.28 2.67Q2.76 2.67 2.76 2.94L2.76 2.94L2.74 3.09Q2.55 4.48 2.51 6.38Q2.46 8.27 2.46 8.86Q2.46 9.45 2.51 9.84Q2.55 10.23 2.56 10.30Q2.56 10.36 2.63 10.54Q2.69 10.71 2.79 10.85L2.79 10.85Q3.04 11.19 3.50 11.19Q3.96 11.19 4.28 10.98Q4.59 10.77 4.75 10.46L4.75 10.46Q5.07 9.80 5.14 9.32L5.14 9.32L5.17 9.11Q5.24 8.12 5.24 6.76Q5.24 5.40 5.22 4.98Q5.21 4.56 5.18 4.29Q5.15 4.02 5.13 3.81Q5.11 3.60 5.10 3.48Q5.08 3.36 5.08 3.35L5.08 3.35Q5.08 3.19 5.24 3.09L5.24 3.09Q5.47 2.91 5.97 2.79Q6.47 2.66 6.86 2.66Q7.25 2.66 7.25 2.84L7.25 2.84Q7.25 2.87 7.18 3.30L7.18 3.30Q6.87 5.21 6.87 8.60L6.87 8.60Q6.87 11.10 7.21 12.17L7.21 12.17Q7.27 12.33 7.27 12.40Q7.27 12.46 7.15 12.56L7.15 12.56Q6.73 12.88 6.04 12.88Q5.35 12.88 5.29 12.53L5.29 12.53Q5.22 12.35 5.21 11.80L5.21 11.80L5.19 11.63Q5.19 11.51 5.14 11.51L5.14 11.51L4.98 11.61Q4.72 12.05 4.37 12.36Q4.02 12.66 3.70 12.77L3.70 12.77Q3.23 12.94 2.79 12.94Q2.35 12.94 1.91 12.71Q1.47 12.47 1.25 12.17Q1.04 11.86 0.90 11.44L0.90 11.44Q0.71 10.84 0.71 10.23ZM8.06 12.77L8.06 12.77Q8.32 11.26 8.32 9.14Q8.32 7.03 8.19 6.40L8.19 6.40Q8.19 6.22 8.61 6.22L8.61 6.22Q9.25 6.22 9.46 6.71L9.46 6.71Q9.48 6.75 9.53 6.75Q9.59 6.75 9.62 6.72L9.62 6.72Q10.05 6.27 10.96 6.27Q11.87 6.27 12.40 6.73Q12.94 7.20 12.94 8.08L12.94 8.08Q12.94 8.61 12.85 9.59Q12.75 10.57 12.75 11.05L12.75 11.05Q12.75 12.18 13.13 12.68L13.13 12.68Q13.19 12.75 13.19 12.82L13.19 12.82Q13.19 13.01 12.80 13.01L12.80 13.01Q11.06 13.01 11.06 11.47L11.06 11.47Q11.06 10.88 11.33 9.83Q11.59 8.78 11.59 8.23L11.59 8.23Q11.59 7.11 10.67 7.11L10.67 7.11Q10.22 7.11 9.99 7.38Q9.76 7.64 9.73 7.99Q9.70 8.33 9.70 9.28L9.70 9.28Q9.70 10.74 9.80 11.82L9.80 11.82L9.83 12.12Q9.83 12.52 9.32 12.73Q8.81 12.95 8.44 12.95Q8.06 12.95 8.06 12.77ZM14.24 10.15L14.24 10.15L14.32 7.67L13.38 7.67Q13.27 7.67 13.27 7.59L13.27 7.59Q13.27 7.34 13.51 7.01Q13.75 6.68 14.03 6.68L14.03 6.68L14.32 6.68Q14.29 5.59 14.27 5.11L14.27 5.11Q14.21 4.26 13.99 3.79L13.99 3.79L13.92 3.65Q13.86 3.58 13.86 3.49Q13.86 3.39 14.01 3.32Q14.17 3.25 14.47 3.15Q14.77 3.05 15.75 2.89Q16.73 2.73 17.89 2.73Q19.04 2.73 19.14 2.90Q19.25 3.07 19.25 3.42Q19.25 3.78 19.15 3.78L19.15 3.78Q19.14 3.78 19.05 3.77L19.05 3.77Q18.83 3.71 18.37 3.71Q17.91 3.71 17.37 3.79Q16.84 3.88 16.56 3.96L16.56 3.96L16.30 4.06Q16.18 4.09 16.13 4.26L16.13 4.26Q16.02 5.08 16.02 6.68L16.02 6.68L18.28 6.68Q18.41 6.68 18.41 6.76L18.41 6.76Q18.41 7.01 18.19 7.35Q17.96 7.69 17.68 7.69L17.68 7.69L16.02 7.67L16.11 11.87Q16.11 12.18 16.02 12.32L16.02 12.32Q15.75 12.67 15.11 12.85Q14.48 13.02 14.06 13.02L14.06 13.02Q13.94 13.02 13.94 12.88L13.94 12.88Q13.94 12.81 13.96 12.77L13.96 12.77Q14.13 12.53 14.24 10.15ZM23.46 8.47L23.46 8.47L23.44 10.26Q23.44 12.12 23.84 12.50L23.84 12.50Q23.90 12.56 23.90 12.63L23.90 12.63Q23.90 12.84 23.00 12.84Q22.09 12.84 22.04 12.31L22.04 12.31Q22.02 12.18 22.02 11.79L22.02 11.79L22.08 9.55Q22.08 9.45 21.97 9.45L21.97 9.45Q21.29 9.45 20.71 9.83Q20.12 10.21 20.12 10.79L20.12 10.79Q20.12 11.10 20.29 11.31Q20.45 11.52 20.70 11.52Q20.94 11.52 21.11 11.42Q21.27 11.33 21.29 11.31L21.29 11.31Q21.53 11.34 21.53 11.81Q21.53 12.28 21.10 12.56Q20.66 12.85 20.19 12.85Q19.71 12.85 19.37 12.68Q19.03 12.52 18.87 12.31Q18.72 12.10 18.62 11.83L18.62 11.83Q18.52 11.51 18.52 11.27L18.52 11.27Q18.52 10.29 19.14 9.70Q19.75 9.11 20.72 8.86L20.72 8.86Q21.99 8.61 22.05 8.40L22.05 8.40Q22.09 8.25 22.09 7.88L22.09 7.88Q22.09 7.14 21.34 7.14L21.34 7.14Q21.01 7.14 20.76 7.34Q20.51 7.55 20.51 7.85L20.51 7.85L20.59 8.19Q20.57 8.43 20.09 8.47L20.09 8.47L19.94 8.48Q19.52 8.48 19.27 8.27Q19.03 8.06 19.03 7.71L19.03 7.71Q19.03 7.49 19.17 7.22Q19.32 6.94 19.54 6.78Q19.77 6.61 20.24 6.47Q20.71 6.34 21.14 6.34Q21.57 6.34 21.81 6.37Q22.05 6.40 22.46 6.50Q22.88 6.61 23.15 6.90Q23.42 7.20 23.44 7.52Q23.46 7.85 23.46 8.47ZM27.34 8.13L27.34 8.13Q27.29 8.19 27.29 8.25Q27.29 8.32 27.55 8.37Q27.80 8.43 28.11 8.68Q28.42 8.93 28.57 9.23L28.57 9.23Q28.87 9.80 28.90 10.23L28.90 10.23L28.91 10.42Q28.98 12.05 29.51 12.66L29.51 12.66Q29.58 12.75 29.58 12.80L29.58 12.80Q29.58 12.95 29.19 12.95L29.19 12.95Q28.01 12.95 27.69 12.46L27.69 12.46Q27.52 12.26 27.52 11.24L27.52 11.24L27.52 10.89Q27.52 9.59 27.20 9.09L27.20 9.09Q27.03 8.85 26.79 8.85Q26.54 8.85 26.28 9.28Q26.01 9.70 26.01 10.00L26.01 10.00Q26.01 11.17 26.07 11.63Q26.12 12.10 26.12 12.11L26.12 12.11Q26.12 12.52 25.57 12.74Q25.02 12.96 24.53 12.96L24.53 12.96Q24.35 12.96 24.35 12.74L24.35 12.74L24.35 12.68Q24.68 10.96 24.68 7.25L24.68 7.25Q24.68 6.03 24.63 5.19L24.63 5.19L24.60 4.91Q24.57 4.52 24.44 4.24Q24.30 3.96 24.18 3.88L24.18 3.88L24.07 3.81Q23.97 3.75 23.97 3.68L23.97 3.68Q23.97 3.46 24.64 3.18Q25.31 2.90 25.80 2.90L25.80 2.90Q26.03 2.91 26.04 3.07L26.04 3.07Q26.11 3.63 26.11 5.37Q26.11 7.11 26.03 8.15L26.03 8.15Q26.03 8.32 26.08 8.32Q26.14 8.32 26.26 8.16Q26.38 7.99 26.68 7.64Q26.98 7.29 27.49 6.83Q28.00 6.37 28.32 6.37Q28.63 6.37 28.94 6.52Q29.25 6.68 29.25 6.82L29.25 6.82L29.09 6.92Q28.29 7.21 27.34 8.13ZM31.18 9.11L31.18 9.11L31.19 9.46Q31.19 9.55 31.30 9.55L31.30 9.55Q31.75 9.51 32.09 9.32Q32.42 9.13 32.59 8.89L32.59 8.89Q32.93 8.37 32.96 7.99L32.96 7.99L32.97 7.83Q32.97 7.07 32.37 7.07L32.37 7.07Q31.92 7.07 31.64 7.46L31.64 7.46Q31.18 8.08 31.18 9.11ZM34.23 10.98L34.23 10.98Q34.23 11.51 34.01 11.91Q33.80 12.31 33.52 12.49Q33.25 12.68 32.89 12.80L32.89 12.80Q32.42 12.94 32.00 12.94L32.00 12.94Q30.83 12.94 30.27 12.05Q29.71 11.17 29.71 9.81Q29.71 8.44 30.40 7.38Q31.09 6.31 32.48 6.31L32.48 6.31Q33.74 6.31 34.19 7.20L34.19 7.20Q34.37 7.53 34.37 7.83Q34.37 8.13 34.34 8.31Q34.31 8.48 34.15 8.83Q33.98 9.18 33.70 9.46Q33.42 9.74 32.82 10.00Q32.21 10.25 31.40 10.33L31.40 10.33Q31.29 10.33 31.29 10.43L31.29 10.43Q31.29 10.56 31.38 10.80Q31.47 11.05 31.58 11.21L31.58 11.21Q31.89 11.61 32.49 11.61L32.49 11.61Q33.10 11.61 33.52 11.21L33.52 11.21Q33.74 11.00 33.88 10.70L33.88 10.70Q33.94 10.58 34.03 10.58Q34.12 10.58 34.17 10.74Q34.23 10.89 34.23 10.98Z"></path></g><!----><!----></svg>